<?xml version="1.0" encoding="UTF-8" standalone="no"?>
<svg
   xmlns:dc="http://purl.org/dc/elements/1.1/"
   xmlns:cc="http://creativecommons.org/ns#"
   xmlns:rdf="http://www.w3.org/1999/02/22-rdf-syntax-ns#"
   xmlns:svg="http://www.w3.org/2000/svg"
   xmlns="http://www.w3.org/2000/svg"
   xmlns:sodipodi="http://sodipodi.sourceforge.net/DTD/sodipodi-0.dtd"
   xmlns:inkscape="http://www.inkscape.org/namespaces/inkscape"
   version="1.1"
   viewBox="0 0 128 128"
   xml:space="preserve"
   id="svg2"
   inkscape:version="0.48.5 r10040"
   width="100%"
   height="100%"
   sodipodi:docname="1433567672_receipt-paid-paper.svg"><metadata
     id="metadata44"><rdf:RDF><cc:Work
         rdf:about=""><dc:format>image/svg+xml</dc:format><dc:type
           rdf:resource="http://purl.org/dc/dcmitype/StillImage" /></cc:Work></rdf:RDF></metadata><defs
     id="defs42" /><sodipodi:namedview
     pagecolor="#ffffff"
     bordercolor="#666666"
     borderopacity="1"
     objecttolerance="10"
     gridtolerance="10"
     guidetolerance="10"
     inkscape:pageopacity="0"
     inkscape:pageshadow="2"
     inkscape:window-width="1269"
     inkscape:window-height="994"
     id="namedview40"
     showgrid="false"
     inkscape:zoom="3.7759471"
     inkscape:cx="63.312359"
     inkscape:cy="59.585388"
     inkscape:window-x="1366"
     inkscape:window-y="0"
     inkscape:window-maximized="1"
     inkscape:current-layer="svg2" /><g
     id="receipt-paid-paper"
     transform="matrix(0.25526694,0,0,0.25526694,0,0.3647289)"><g
       id="g5"><path
         d="M 249.989,500.007 C 111.922,500.007 0,388.076 0,250 0,111.931 111.922,0 249.989,0 c 138.076,0 249.998,111.931 249.998,250 0,138.076 -111.922,250.007 -249.998,250.007 z"
         style="fill:#a8b6c0"
         id="path7"
         inkscape:connector-curvature="0" /><g
         id="_x35_"><linearGradient
           gradientUnits="userSpaceOnUse"
           id="SVGID_1_"
           x1="249.9895"
           x2="249.9895"
           y1="118.7235"
           y2="381.28531"
           gradientTransform="matrix(3.9174676,0,0,3.9174676,0,-1.4288139)"><stop
             offset="0.5"
             style="stop-color:#E0E0E0"
             id="stop11" /><stop
             offset="0.5"
             style="stop-color:#FFFFFF"
             id="stop13" /></linearGradient><polygon
           points="184.349,359.401 217.169,381.285 249.989,359.401 282.81,381.285 315.63,353.926 348.45,381.285 348.45,118.724 151.529,118.724 151.529,381.285 "
           style="fill:url(#SVGID_1_)"
           id="polygon15" /><g
           id="g17"><g
             id="g19"><polyline
               points="330.775,185.462 330.775,193.385 171.657,193.385 171.657,185.462      "
               style="fill:#59616a"
               id="polyline21" /><rect
               height="7.9320002"
               style="fill:#59616a"
               width="159.118"
               x="171.657"
               y="207.274"
               id="rect23" /><rect
               height="7.9320002"
               style="fill:#59616a"
               width="159.118"
               x="171.657"
               y="229.09801"
               id="rect25" /><rect
               height="7.9190001"
               style="fill:#59616a"
               width="159.118"
               x="171.657"
               y="263.414"
               id="rect27" /><rect
               height="7.9180002"
               style="fill:#59616a"
               width="159.118"
               x="171.657"
               y="285.23099"
               id="rect29" /><rect
               height="7.9310002"
               style="fill:#59616a"
               width="159.118"
               x="171.657"
               y="307.04599"
               id="rect31" /><rect
               height="7.9320002"
               style="fill:#59616a"
               width="159.118"
               x="171.657"
               y="328.871"
               id="rect33" /></g><g
             id="g35"><path
               d="m 325.143,155.168 c -1.419,0 -2.632,0.526 -3.633,1.602 -0.983,1.06 -1.658,2.265 -2.017,3.602 -0.368,1.325 -0.53,2.432 -0.53,3.351 0,2.102 0.445,3.671 1.368,4.709 0.898,1.017 2.009,1.543 3.333,1.543 1.974,0 3.53,-0.915 4.649,-2.761 1.111,-1.825 1.675,-3.786 1.675,-5.889 0,-1.675 -0.402,-3.111 -1.196,-4.316 -0.82,-1.213 -2.017,-1.841 -3.649,-1.841 z m 1.478,10.316 c -0.59,1.705 -1.53,2.577 -2.76,2.577 -0.778,0 -1.402,-0.278 -1.829,-0.872 -0.453,-0.581 -0.684,-1.41 -0.684,-2.513 0,-1.534 0.308,-3.179 0.915,-4.927 0.598,-1.761 1.547,-2.654 2.863,-2.654 0.752,0 1.35,0.308 1.786,0.91 0.428,0.603 0.624,1.432 0.624,2.53 0,1.572 -0.291,3.231 -0.915,4.949 z m -10.666,1.73 c 1.111,-1.825 1.667,-3.786 1.667,-5.889 0,-1.675 -0.385,-3.111 -1.197,-4.316 -0.812,-1.213 -2.008,-1.842 -3.641,-1.842 -1.41,0 -2.633,0.526 -3.624,1.602 -0.983,1.06 -1.675,2.265 -2.017,3.602 -0.367,1.325 -0.53,2.432 -0.53,3.351 0,2.102 0.445,3.671 1.368,4.709 0.889,1.017 2.009,1.543 3.325,1.543 1.982,0.001 3.529,-0.913 4.649,-2.76 z m -4.453,0.847 c -0.778,0 -1.393,-0.278 -1.829,-0.872 -0.453,-0.581 -0.684,-1.41 -0.684,-2.513 0,-1.534 0.316,-3.179 0.915,-4.927 0.598,-1.761 1.556,-2.654 2.863,-2.654 0.752,0 1.35,0.308 1.778,0.91 0.445,0.603 0.641,1.432 0.641,2.53 0,1.572 -0.299,3.23 -0.906,4.948 -0.616,1.706 -1.539,2.578 -2.778,2.578 z m -12.573,1.914 c 1.983,0 3.53,-0.915 4.658,-2.761 1.12,-1.825 1.684,-3.786 1.684,-5.889 0,-1.675 -0.393,-3.111 -1.213,-4.316 -0.803,-1.213 -2.017,-1.842 -3.65,-1.842 -1.41,0 -2.624,0.526 -3.607,1.602 -1,1.06 -1.693,2.265 -2.034,3.602 -0.368,1.325 -0.538,2.432 -0.538,3.351 0,2.102 0.453,3.671 1.368,4.709 0.922,1.019 2.016,1.544 3.332,1.544 z m -1.401,-10.226 c 0.598,-1.761 1.547,-2.654 2.872,-2.654 0.761,0 1.342,0.308 1.778,0.91 0.436,0.603 0.649,1.432 0.649,2.53 0,1.572 -0.316,3.23 -0.915,4.948 -0.624,1.705 -1.538,2.577 -2.769,2.577 -0.778,0 -1.393,-0.278 -1.846,-0.872 -0.453,-0.581 -0.666,-1.41 -0.666,-2.513 -10e-4,-1.533 0.307,-3.178 0.897,-4.926 z m -10.958,10.226 c 1.983,0 3.53,-0.915 4.65,-2.761 1.111,-1.825 1.683,-3.786 1.683,-5.889 0,-1.675 -0.402,-3.111 -1.205,-4.316 -0.812,-1.213 -2.008,-1.842 -3.649,-1.842 -1.41,0 -2.633,0.526 -3.624,1.602 -0.983,1.06 -1.666,2.265 -2.017,3.602 -0.368,1.325 -0.538,2.432 -0.538,3.351 0,2.102 0.453,3.671 1.367,4.709 0.897,1.019 2.017,1.544 3.333,1.544 z m -1.401,-10.226 c 0.607,-1.761 1.555,-2.654 2.863,-2.654 0.761,0 1.359,0.308 1.795,0.91 0.419,0.603 0.624,1.432 0.624,2.53 0,1.572 -0.299,3.23 -0.915,4.948 -0.598,1.705 -1.539,2.577 -2.761,2.577 -0.786,0 -1.402,-0.278 -1.837,-0.872 -0.444,-0.581 -0.684,-1.41 -0.684,-2.513 0,-1.533 0.325,-3.178 0.915,-4.926 z m -11.573,7.465 c 1.12,-1.825 1.667,-3.786 1.667,-5.889 0,-1.675 -0.402,-3.111 -1.197,-4.316 -0.795,-1.213 -2.017,-1.842 -3.649,-1.842 -1.419,0 -2.616,0.526 -3.615,1.602 -1,1.06 -1.658,2.265 -2.034,3.602 -0.342,1.325 -0.53,2.432 -0.53,3.351 0,2.102 0.444,3.671 1.367,4.709 0.914,1.017 2.034,1.543 3.324,1.543 1.983,0.001 3.556,-0.913 4.667,-2.76 z m -4.444,0.847 c -0.786,0 -1.402,-0.278 -1.846,-0.872 -0.453,-0.581 -0.675,-1.41 -0.675,-2.513 0,-1.534 0.299,-3.179 0.906,-4.927 0.598,-1.761 1.547,-2.654 2.863,-2.654 0.769,0 1.367,0.308 1.778,0.91 0.445,0.603 0.649,1.432 0.649,2.53 0,1.572 -0.291,3.23 -0.906,4.948 -0.624,1.706 -1.538,2.578 -2.769,2.578 z m -11.094,-12.893 c -1.427,0 -2.607,0.526 -3.607,1.602 -1.008,1.06 -1.675,2.265 -2.043,3.602 -0.35,1.325 -0.53,2.432 -0.53,3.351 0,2.102 0.445,3.671 1.368,4.709 0.915,1.017 2.034,1.543 3.325,1.543 1.991,0 3.555,-0.915 4.667,-2.761 1.12,-1.825 1.667,-3.786 1.667,-5.889 0,-1.675 -0.393,-3.111 -1.205,-4.316 -0.796,-1.213 -2.019,-1.841 -3.642,-1.841 z m 1.495,10.316 c -0.606,1.705 -1.521,2.577 -2.76,2.577 -0.778,0 -1.393,-0.278 -1.855,-0.872 -0.445,-0.581 -0.658,-1.41 -0.658,-2.513 0,-1.534 0.299,-3.179 0.897,-4.927 0.599,-1.761 1.539,-2.654 2.863,-2.654 0.761,0 1.367,0.308 1.778,0.91 0.436,0.603 0.658,1.432 0.658,2.53 10e-4,1.572 -0.307,3.231 -0.923,4.949 z m -13.854,-10.316 c -1.41,0 -2.607,0.526 -3.615,1.602 -1,1.06 -1.659,2.265 -2.026,3.602 -0.359,1.325 -0.539,2.432 -0.539,3.351 0,2.102 0.453,3.671 1.368,4.709 0.915,1.017 2.034,1.543 3.342,1.543 1.974,0 3.538,-0.915 4.658,-2.761 1.111,-1.825 1.667,-3.786 1.667,-5.889 0,-1.675 -0.41,-3.111 -1.205,-4.316 -0.795,-1.213 -2.009,-1.841 -3.65,-1.841 z m 1.504,10.316 c -0.633,1.705 -1.539,2.577 -2.778,2.577 -0.778,0 -1.393,-0.278 -1.846,-0.872 -0.444,-0.581 -0.666,-1.41 -0.666,-2.513 0,-1.534 0.308,-3.179 0.906,-4.927 0.59,-1.761 1.547,-2.654 2.863,-2.654 0.769,0 1.368,0.308 1.786,0.91 0.428,0.603 0.65,1.432 0.65,2.53 0,1.572 -0.299,3.231 -0.915,4.949 z m -15.342,4.491 c 1.974,0 3.521,-0.915 4.65,-2.761 1.12,-1.825 1.675,-3.786 1.675,-5.889 0,-1.675 -0.402,-3.111 -1.196,-4.316 -0.795,-1.213 -2.017,-1.842 -3.65,-1.842 -1.419,0 -2.633,0.526 -3.607,1.602 -1,1.06 -1.684,2.265 -2.043,3.602 -0.359,1.325 -0.521,2.432 -0.521,3.351 0,2.102 0.444,3.671 1.359,4.709 0.915,1.019 2.017,1.544 3.333,1.544 z m -1.401,-10.226 c 0.598,-1.761 1.556,-2.654 2.854,-2.654 0.778,0 1.368,0.308 1.795,0.91 0.428,0.603 0.641,1.432 0.641,2.53 0,1.572 -0.308,3.23 -0.906,4.948 -0.616,1.705 -1.53,2.577 -2.77,2.577 -0.778,0 -1.402,-0.278 -1.855,-0.872 -0.444,-0.581 -0.658,-1.41 -0.658,-2.513 0.001,-1.533 0.3,-3.178 0.899,-4.926 z m -16.214,10.226 c 1.974,0 3.521,-0.915 4.65,-2.761 1.111,-1.825 1.675,-3.786 1.675,-5.889 0,-1.675 -0.402,-3.111 -1.213,-4.316 -0.803,-1.213 -2.017,-1.842 -3.632,-1.842 -1.436,0 -2.632,0.526 -3.633,1.602 -1.008,1.06 -1.666,2.265 -2.034,3.602 -0.35,1.325 -0.539,2.432 -0.539,3.351 0,2.102 0.47,3.671 1.367,4.709 0.923,1.019 2.034,1.544 3.359,1.544 z m -1.427,-10.226 c 0.606,-1.761 1.564,-2.654 2.871,-2.654 0.761,0 1.359,0.308 1.795,0.91 0.419,0.603 0.632,1.432 0.632,2.53 0,1.572 -0.299,3.23 -0.915,4.948 -0.598,1.705 -1.53,2.577 -2.761,2.577 -0.786,0 -1.41,-0.278 -1.846,-0.872 -0.445,-0.581 -0.675,-1.41 -0.675,-2.513 0.002,-1.533 0.3,-3.178 0.899,-4.926 z m -10.949,10.226 c 1.974,0 3.538,-0.915 4.658,-2.761 1.119,-1.825 1.658,-3.786 1.658,-5.889 0,-1.675 -0.393,-3.111 -1.197,-4.316 -0.795,-1.213 -2.009,-1.842 -3.641,-1.842 -1.41,0 -2.616,0.526 -3.607,1.602 -1,1.06 -1.675,2.265 -2.043,3.602 -0.351,1.325 -0.539,2.432 -0.539,3.351 0,2.102 0.462,3.671 1.376,4.709 0.917,1.019 2.036,1.544 3.335,1.544 z m -1.401,-10.226 c 0.59,-1.761 1.539,-2.654 2.863,-2.654 0.76,0 1.367,0.308 1.777,0.91 0.436,0.603 0.658,1.432 0.658,2.53 0,1.572 -0.308,3.23 -0.923,4.948 -0.615,1.705 -1.539,2.577 -2.769,2.577 -0.778,0 -1.393,-0.278 -1.837,-0.872 -0.462,-0.581 -0.667,-1.41 -0.667,-2.513 0,-1.533 0.291,-3.178 0.898,-4.926 z m -10.958,10.226 c 1.975,0 3.538,-0.915 4.667,-2.761 1.111,-1.825 1.658,-3.786 1.658,-5.889 0,-1.675 -0.393,-3.111 -1.205,-4.316 -0.795,-1.213 -2,-1.842 -3.641,-1.842 -1.419,0 -2.615,0.526 -3.615,1.602 -0.992,1.06 -1.667,2.265 -2.026,3.602 -0.351,1.325 -0.538,2.432 -0.538,3.351 0,2.102 0.444,3.671 1.368,4.709 0.913,1.019 2.025,1.544 3.332,1.544 z m -1.401,-10.226 c 0.589,-1.761 1.547,-2.654 2.854,-2.654 0.778,0 1.376,0.308 1.786,0.91 0.436,0.603 0.65,1.432 0.65,2.53 0,1.572 -0.291,3.23 -0.915,4.948 -0.616,1.705 -1.53,2.577 -2.761,2.577 -0.786,0 -1.393,-0.278 -1.855,-0.872 -0.436,-0.581 -0.658,-1.41 -0.658,-2.513 10e-4,-1.533 0.301,-3.178 0.899,-4.926 z m -10.957,10.226 c 1.983,0 3.547,-0.915 4.658,-2.761 1.111,-1.825 1.667,-3.786 1.667,-5.889 0,-1.675 -0.393,-3.111 -1.205,-4.316 -0.786,-1.213 -2.009,-1.842 -3.65,-1.842 -1.402,0 -2.607,0.526 -3.598,1.602 -1,1.06 -1.675,2.265 -2.034,3.602 -0.351,1.325 -0.539,2.432 -0.539,3.351 0,2.102 0.445,3.671 1.359,4.709 0.923,1.019 2.042,1.544 3.342,1.544 z m -1.402,-10.226 c 0.598,-1.761 1.547,-2.654 2.863,-2.654 0.769,0 1.368,0.308 1.787,0.91 0.436,0.603 0.649,1.432 0.649,2.53 0,1.572 -0.308,3.23 -0.915,4.948 -0.624,1.705 -1.539,2.577 -2.769,2.577 -0.786,0 -1.393,-0.278 -1.855,-0.872 -0.445,-0.581 -0.658,-1.41 -0.658,-2.513 0,-1.533 0.291,-3.178 0.898,-4.926 z"
               style="fill:#7e848b"
               id="path37"
               inkscape:connector-curvature="0" /></g></g></g></g></g><g
     id="Layer_1"
     transform="translate(0,-372.00701)" /></svg>