<?xml version="1.0" encoding="UTF-8" standalone="no"?>
<svg
   xmlns:dc="http://purl.org/dc/elements/1.1/"
   xmlns:cc="http://creativecommons.org/ns#"
   xmlns:rdf="http://www.w3.org/1999/02/22-rdf-syntax-ns#"
   xmlns:svg="http://www.w3.org/2000/svg"
   xmlns="http://www.w3.org/2000/svg"
   xmlns:sodipodi="http://sodipodi.sourceforge.net/DTD/sodipodi-0.dtd"
   xmlns:inkscape="http://www.inkscape.org/namespaces/inkscape"
   enable-background="new 0 0 512 512"
   height="128"
   id="Layer_1"
   version="1.1"
   viewBox="0 0 128 128"
   width="128"
   xml:space="preserve"
   inkscape:version="0.48.5 r10040"
   sodipodi:docname="1433191191_css.svg"><metadata
     id="metadata21"><rdf:RDF><cc:Work
         rdf:about=""><dc:format>image/svg+xml</dc:format><dc:type
           rdf:resource="http://purl.org/dc/dcmitype/StillImage" /></cc:Work></rdf:RDF></metadata><defs
     id="defs19" /><sodipodi:namedview
     pagecolor="#ffffff"
     bordercolor="#666666"
     borderopacity="1"
     objecttolerance="10"
     gridtolerance="10"
     guidetolerance="10"
     inkscape:pageopacity="0"
     inkscape:pageshadow="2"
     inkscape:window-width="1269"
     inkscape:window-height="994"
     id="namedview17"
     showgrid="false"
     showborder="false"
     inkscape:zoom="1.84375"
     inkscape:cx="205.95145"
     inkscape:cy="44.70939"
     inkscape:window-x="1366"
     inkscape:window-y="0"
     inkscape:window-maximized="1"
     inkscape:current-layer="Layer_1" /><g
     id="g3"
     transform="scale(0.25,0.25)"><polyline
       points="0,512 512,512 512,0 0,0 0,512  "
       id="polyline5"
       style="fill:#1073bb" /><path
       d="m 218.381,135.438 12.765,3.957 c -0.881,3.717 -2.267,6.821 -4.156,9.316 -1.89,2.496 -4.237,4.379 -7.039,5.648 -2.803,1.271 -6.371,1.906 -10.703,1.906 -5.256,0 -9.549,-0.761 -12.88,-2.278 -3.332,-1.52 -6.205,-4.191 -8.624,-8.017 -2.417,-3.823 -3.627,-8.717 -3.627,-14.679 0,-7.952 2.116,-14.063 6.352,-18.336 4.233,-4.272 10.226,-6.407 17.972,-6.407 6.067,0 10.835,1.247 14.303,3.742 3.467,2.494 6.045,6.324 7.731,11.49 l -13.437,2.907 c -0.455,-1.456 -0.93,-2.52 -1.428,-3.191 -0.826,-1.133 -1.834,-2.006 -3.028,-2.614 -1.193,-0.609 -2.525,-0.912 -3.995,-0.912 -3.337,0 -5.896,1.325 -7.673,3.977 -1.344,1.969 -2.016,5.057 -2.016,9.271 0,5.214 0.835,8.787 2.51,10.723 1.672,1.936 4.019,2.902 7.043,2.902 2.939,0 5.16,-0.803 6.66,-2.408 1.501,-1.606 2.592,-3.939 3.27,-6.997"
       id="path7"
       inkscape:connector-curvature="0"
       style="fill:#ffffff" /><path
       d="m 235.177,139.669 14.78,-0.872 c 0.288,2.269 0.873,3.994 1.754,5.178 1.435,1.922 3.484,2.885 6.151,2.885 1.989,0 3.519,-0.503 4.593,-1.506 1.073,-1.004 1.611,-2.169 1.611,-3.491 0,-1.252 -0.475,-2.375 -1.428,-3.368 -0.959,-0.994 -3.418,-1.934 -7.381,-2.814 -6.486,-1.477 -11.112,-3.424 -13.876,-5.847 -2.793,-2.422 -4.188,-5.506 -4.188,-9.25 0,-2.471 0.719,-4.799 2.152,-6.989 1.435,-2.19 3.593,-3.913 6.471,-5.167 2.88,-1.251 6.831,-1.877 11.849,-1.877 6.151,0 10.841,1.159 14.07,3.479 3.231,2.321 5.153,6.014 5.77,11.081 l -14.781,0.892 c -0.321,-2.344 -0.996,-4.051 -2.02,-5.117 -1.025,-1.069 -2.442,-1.602 -4.248,-1.602 -1.484,0 -2.602,0.369 -3.353,1.108 -0.753,0.74 -1.129,1.636 -1.129,2.692 0,0.771 0.175,1.467 0.525,2.089 0.336,0.638 1.811,1.231 4.428,1.785 6.468,1.408 11.102,2.828 13.901,4.268 2.799,1.438 4.834,3.223 6.109,5.354 1.273,2.132 1.909,4.516 1.909,7.153 0,3.095 -0.853,5.947 -2.562,8.561 -1.707,2.614 -4.093,4.598 -7.157,5.948 -3.066,1.352 -6.93,2.026 -11.592,2.026 -8.187,0 -13.858,-1.563 -17.01,-4.688 -3.152,-3.126 -4.934,-7.096 -5.348,-11.911"
       id="path9"
       inkscape:connector-curvature="0"
       style="fill:#ffffff" /><path
       d="m 283.551,139.669 14.779,-0.872 c 0.287,2.269 0.871,3.994 1.753,5.178 1.435,1.922 3.485,2.885 6.15,2.885 1.988,0 3.52,-0.503 4.595,-1.506 1.073,-1.004 1.613,-2.169 1.613,-3.491 0,-1.252 -0.478,-2.375 -1.429,-3.368 -0.959,-0.994 -3.421,-1.934 -7.38,-2.814 -6.489,-1.477 -11.115,-3.424 -13.88,-5.847 -2.792,-2.422 -4.188,-5.506 -4.188,-9.25 0,-2.471 0.718,-4.799 2.153,-6.989 1.433,-2.19 3.593,-3.913 6.473,-5.167 2.878,-1.251 6.828,-1.877 11.846,-1.877 6.151,0 10.842,1.159 14.072,3.479 3.229,2.321 5.151,6.014 5.769,11.081 l -14.781,0.892 c -0.322,-2.344 -0.996,-4.051 -2.021,-5.117 -1.026,-1.069 -2.439,-1.602 -4.247,-1.602 -1.482,0 -2.602,0.369 -3.354,1.108 -0.751,0.74 -1.128,1.636 -1.128,2.692 0,0.771 0.175,1.467 0.523,2.089 0.337,0.638 1.815,1.231 4.433,1.785 6.467,1.408 11.099,2.828 13.899,4.268 2.798,1.438 4.832,3.223 6.109,5.354 1.272,2.132 1.909,4.516 1.909,7.153 0,3.095 -0.854,5.947 -2.561,8.561 -1.709,2.614 -4.095,4.598 -7.16,5.948 -3.065,1.352 -6.929,2.026 -11.591,2.026 -8.188,0 -13.855,-1.563 -17.011,-4.688 -3.152,-3.126 -4.932,-7.096 -5.345,-11.911"
       id="path11"
       inkscape:connector-curvature="0"
       style="fill:#ffffff" /><path
       d="M 512,364.932 C 473.733,325.406 374,174 374,174 H 171 L 136,352 297,512 H 512 V 364.932"
       id="path13"
       inkscape:connector-curvature="0"
       style="opacity:0.19100001;fill:#010101" /><polyline
       points="171.46,174 163.471,213.946 326.064,213.946 320.989,239.749 158.288,239.749 150.407,279.695    313,279.695 303.932,325.258 238.397,346.958 181.609,325.258 185.496,305.5 145.55,305.5 136.048,353.436 229.977,389.389    338.265,353.436 352.624,281.315 355.539,266.85 374,174 171.46,174  "
       id="polyline15"
       style="fill:#ffffff" /></g></svg>