<?xml version="1.0" ?><svg height="48px" version="1.1" viewBox="0 0 48 48" width="48px" xmlns="http://www.w3.org/2000/svg" xmlns:sketch="http://www.bohemiancoding.com/sketch/ns" xmlns:xlink="http://www.w3.org/1999/xlink"><title/><defs/><g fill="none" fill-rule="evenodd" id="shadow" stroke="none" stroke-width="1"><g id="mail"><path d="M24,48 C37.2548347,48 48,37.2548347 48,24 C48,10.7451653 37.2548347,0 24,0 C10.7451653,0 0,10.7451653 0,24 C0,37.2548347 10.7451653,48 24,48 Z" fill="#3498DB"/><path d="M0.0126704403,24.7873296 C0.428138371,37.6777365 11.0086216,48 24,48 L38.7723958,33.2276042 L28.7893219,24.3437503 L22.8903641,30.0216151 L21.8541672,28.5466151 L24.3197922,26.3752604 L10.2833333,14.5166667 L0.0126704403,24.7873296 Z" fill="#000000" fill-opacity="0.400000006"/><path d="M24,26.7692308 L37.8461538,14.7692308 L10.1538462,14.7692308 L24,26.7692308 Z M20.2601412,25.4408428 L24,28.5105919 L27.681265,25.4408428 L37.8461538,34.1538462 L10.1538462,34.1538462 L20.2601412,25.4408428 Z M9.23076923,33.2307692 L9.23076923,15.6923077 L19.3846154,24.4615385 L9.23076923,33.2307692 Z M38.7692308,33.2307692 L38.7692308,15.6923077 L28.6153846,24.4615385 L38.7692308,33.2307692 Z" fill="#FFFFFF"/></g></g></svg>