<?xml version="1.0" encoding="UTF-8" standalone="no"?>
<svg
   xmlns:dc="http://purl.org/dc/elements/1.1/"
   xmlns:cc="http://creativecommons.org/ns#"
   xmlns:rdf="http://www.w3.org/1999/02/22-rdf-syntax-ns#"
   xmlns:svg="http://www.w3.org/2000/svg"
   xmlns="http://www.w3.org/2000/svg"
   xmlns:sodipodi="http://sodipodi.sourceforge.net/DTD/sodipodi-0.dtd"
   xmlns:inkscape="http://www.inkscape.org/namespaces/inkscape"
   enable-background="new 0 0 512 512"
   height="128"
   id="Layer_1"
   version="1.1"
   viewBox="0 0 128 128"
   width="128"
   xml:space="preserve"
   inkscape:version="0.48.5 r10040"
   sodipodi:docname="1433191171_javascript.svg"><metadata
     id="metadata35"><rdf:RDF><cc:Work
         rdf:about=""><dc:format>image/svg+xml</dc:format><dc:type
           rdf:resource="http://purl.org/dc/dcmitype/StillImage" /></cc:Work></rdf:RDF></metadata><defs
     id="defs33" /><sodipodi:namedview
     pagecolor="#ffffff"
     bordercolor="#666666"
     borderopacity="1"
     objecttolerance="10"
     gridtolerance="10"
     guidetolerance="10"
     inkscape:pageopacity="0"
     inkscape:pageshadow="2"
     inkscape:window-width="1269"
     inkscape:window-height="994"
     id="namedview31"
     showgrid="false"
     inkscape:zoom="2.6074563"
     inkscape:cx="222.35351"
     inkscape:cy="139.99026"
     inkscape:window-x="1366"
     inkscape:window-y="0"
     inkscape:window-maximized="1"
     inkscape:current-layer="Layer_1" /><g
     id="g3"
     transform="scale(0.25,0.25)"><polyline
       points="0,512 512,512 512,0 0,0 0,512  "
       id="polyline5"
       style="fill:#67a969" /><path
       d="M 93.801,109.799 H 107 v 23.402 c 0,4.91 -0.438,8.65 -1.312,11.21 -0.875,2.563 -2.634,4.734 -5.283,6.516 -2.646,1.783 -6.036,2.673 -10.167,2.673 -4.369,0 -7.753,-0.582 -10.153,-1.748 -2.401,-1.166 -4.255,-2.869 -5.564,-5.109 -1.309,-2.24 -2.083,-5.012 -2.32,-8.311 L 85.4,136.799 c 0.019,1.79 0.182,3.115 0.489,3.981 0.305,0.866 0.824,1.563 1.555,2.095 0.5,0.351 1.211,0.525 2.129,0.525 1.456,0 2.524,-0.549 3.205,-1.649 0.682,-1.103 1.023,-2.954 1.023,-5.561 v -26.391"
       id="path7"
       inkscape:connector-curvature="0"
       style="fill:#ffffff" /><path
       d="m 134.301,138.6 c -1.563,0.557 -3.188,1.047 -4.876,1.474 -2.305,0.612 -3.765,1.215 -4.377,1.809 -0.631,0.61 -0.947,1.309 -0.947,2.09 0,0.889 0.311,1.613 0.932,2.18 0.623,0.565 1.535,0.849 2.743,0.849 1.268,0 2.445,-0.308 3.529,-0.919 1.084,-0.612 1.854,-1.36 2.31,-2.241 0.458,-0.88 0.686,-2.025 0.686,-3.431 V 138.6 m -9,-6 -12,-1.199 c 0.424,-2.118 1.037,-3.789 1.837,-5.007 0.8,-1.219 1.952,-2.274 3.459,-3.168 1.081,-0.646 2.567,-1.143 4.458,-1.496 1.89,-0.354 3.937,-0.528 6.136,-0.528 3.531,0 6.368,0.199 8.512,0.598 2.145,0.402 3.928,1.235 5.353,2.503 1.005,0.884 1.799,2.128 2.376,3.737 0.578,1.609 0.868,3.146 0.868,4.607 v 13.734 c 0,1.463 0.092,2.609 0.276,3.44 0.184,0.832 0.59,1.891 1.215,3.179 h -11.476 c -0.461,-0.813 -0.764,-1.432 -0.904,-1.856 -0.141,-0.426 -0.28,-1.094 -0.417,-2.006 -1.53,1.487 -3.053,2.55 -4.565,3.188 -2.069,0.85 -4.473,1.274 -7.209,1.274 -3.637,0 -6.4,-0.839 -8.288,-2.521 -1.888,-1.682 -2.831,-3.754 -2.831,-6.217 0,-2.313 0.677,-4.214 2.034,-5.7 1.356,-1.492 3.862,-2.603 7.518,-3.328 4.375,-0.874 7.213,-1.488 8.513,-1.842 1.3,-0.354 2.677,-0.817 4.134,-1.393 0,-1.33 -0.266,-2.264 -0.793,-2.798 -0.528,-0.535 -1.453,-0.802 -2.779,-0.802 -1.701,0 -2.975,0.308 -3.825,0.919 -0.661,0.476 -1.196,1.37 -1.602,2.682 z"
       id="path9"
       inkscape:connector-curvature="0"
       style="fill:#ffffff" /><polyline
       points="148.399,121.799 160.682,121.799 166.7,141.572 172.682,121.799 185,121.799 171.772,153    161.234,153 148.399,121.799  "
       id="polyline11"
       style="fill:#ffffff" /><path
       d="m 209.602,138.6 c -1.563,0.557 -3.188,1.047 -4.876,1.474 -2.305,0.612 -3.765,1.215 -4.376,1.809 -0.631,0.61 -0.948,1.309 -0.948,2.09 0,0.889 0.311,1.613 0.932,2.18 0.623,0.565 1.537,0.849 2.743,0.849 1.268,0 2.446,-0.308 3.53,-0.919 1.084,-0.612 1.854,-1.36 2.312,-2.241 0.456,-0.88 0.684,-2.025 0.684,-3.431 V 138.6 m -9.001,-6 -12,-1.199 c 0.425,-2.118 1.037,-3.789 1.837,-5.007 0.8,-1.219 1.952,-2.274 3.458,-3.168 1.082,-0.646 2.568,-1.143 4.459,-1.496 1.89,-0.354 3.936,-0.528 6.136,-0.528 3.53,0 6.368,0.199 8.512,0.598 2.144,0.402 3.929,1.235 5.354,2.503 1.006,0.884 1.799,2.128 2.376,3.737 0.579,1.609 0.868,3.146 0.868,4.607 v 13.734 c 0,1.463 0.092,2.609 0.276,3.44 0.183,0.832 0.589,1.891 1.214,3.179 h -11.477 c -0.46,-0.813 -0.764,-1.432 -0.904,-1.856 -0.141,-0.426 -0.279,-1.094 -0.417,-2.006 -1.53,1.487 -3.053,2.55 -4.566,3.188 -2.069,0.85 -4.472,1.274 -7.209,1.274 -3.637,0 -6.4,-0.839 -8.289,-2.521 -1.888,-1.682 -2.831,-3.754 -2.831,-6.217 0,-2.313 0.678,-4.214 2.036,-5.7 1.355,-1.492 3.861,-2.603 7.517,-3.328 4.376,-0.874 7.214,-1.488 8.514,-1.842 1.3,-0.354 2.677,-0.817 4.135,-1.393 0,-1.33 -0.266,-2.264 -0.793,-2.798 -0.529,-0.535 -1.454,-0.802 -2.779,-0.802 -1.7,0 -2.975,0.308 -3.825,0.919 -0.663,0.476 -1.198,1.37 -1.602,2.682 z"
       id="path13"
       inkscape:connector-curvature="0"
       style="fill:#ffffff" /><path
       d="M 246.802,138.779 260,138 c 0.258,2.026 0.778,3.565 1.566,4.621 1.283,1.719 3.112,2.58 5.494,2.58 1.774,0 3.143,-0.448 4.101,-1.347 0.96,-0.896 1.439,-1.936 1.439,-3.116 0,-1.119 -0.425,-2.121 -1.274,-3.01 -0.857,-0.889 -3.053,-1.727 -6.592,-2.513 -5.793,-1.319 -9.924,-3.06 -12.394,-5.222 -2.492,-2.164 -3.739,-4.915 -3.739,-8.26 0,-2.206 0.641,-4.288 1.921,-6.244 1.282,-1.957 3.208,-3.492 5.779,-4.611 2.573,-1.118 6.099,-1.678 10.581,-1.678 5.493,0 9.683,1.034 12.566,3.106 2.885,2.072 4.602,5.37 5.151,9.896 L 271.401,123 c -0.288,-2.094 -0.89,-3.618 -1.806,-4.57 -0.916,-0.954 -2.179,-1.43 -3.791,-1.43 -1.326,0 -2.326,0.329 -2.998,0.989 -0.669,0.659 -1.005,1.461 -1.005,2.404 0,0.688 0.155,1.31 0.467,1.866 0.301,0.567 1.619,1.1 3.957,1.595 5.774,1.255 9.912,2.525 12.413,3.81 2.499,1.284 4.319,2.879 5.455,4.781 1.138,1.902 1.708,4.033 1.708,6.389 0,2.763 -0.763,5.312 -2.288,7.645 -1.525,2.336 -3.657,4.104 -6.394,5.313 -2.738,1.207 -6.188,1.809 -10.351,1.809 -7.313,0 -12.376,-1.394 -15.191,-4.185 -2.816,-2.792 -4.408,-6.337 -4.775,-10.637"
       id="path15"
       inkscape:connector-curvature="0"
       style="fill:#ffffff" /><path
       d="m 314.601,141 12,1.201 c -0.624,2.325 -1.651,4.336 -3.079,6.031 -1.428,1.697 -3.25,3.015 -5.465,3.958 -2.217,0.94 -5.035,1.409 -8.463,1.409 -3.299,0 -6.049,-0.306 -8.251,-0.919 -2.199,-0.611 -4.09,-1.604 -5.671,-2.976 -1.58,-1.371 -2.82,-2.98 -3.722,-4.828 -0.899,-1.849 -1.35,-4.297 -1.35,-7.346 0,-3.188 0.548,-5.842 1.642,-7.959 0.799,-1.557 1.896,-2.952 3.286,-4.187 1.389,-1.234 2.815,-2.155 4.279,-2.761 2.33,-0.95 5.313,-1.424 8.943,-1.424 5.088,0 8.966,0.864 11.636,2.596 2.668,1.731 4.537,4.267 5.613,7.604 l -12,1.801 c -0.324,-1.389 -0.917,-2.436 -1.78,-3.142 -0.863,-0.706 -2.019,-1.06 -3.469,-1.06 -1.832,0 -3.313,0.728 -4.449,2.18 -1.134,1.454 -1.701,3.651 -1.701,6.595 0,2.626 0.568,4.619 1.707,5.981 1.137,1.363 2.587,2.043 4.351,2.043 1.467,0 2.701,-0.39 3.701,-1.175 1,-0.785 1.749,-1.991 2.242,-3.622"
       id="path17"
       inkscape:connector-curvature="0"
       style="fill:#ffffff" /><path
       d="m 332,121.799 h 11.176 v 5.363 c 1.082,-2.269 2.196,-3.828 3.349,-4.684 1.147,-0.853 2.569,-1.277 4.263,-1.277 1.77,0 3.708,0.527 5.813,1.583 l -3.722,8.879 c -1.418,-0.574 -2.54,-0.864 -3.365,-0.864 -1.57,0 -2.788,0.636 -3.657,1.904 -1.236,1.787 -1.856,5.131 -1.856,10.031 V 153 h -12 v -31.201"
       id="path19"
       inkscape:connector-curvature="0"
       style="fill:#ffffff" /><path
       d="m 359,121.799 h 12 V 153 h -12 v -31.201 m 0,-12 h 12 v 8.402 h -12 v -8.402 z"
       id="path21"
       inkscape:connector-curvature="0"
       style="fill:#ffffff" /><path
       d="m 390.116,137.578 c 0,2.786 0.515,4.855 1.537,6.202 1.024,1.346 2.323,2.019 3.891,2.019 1.38,0 2.537,-0.646 3.464,-1.938 0.929,-1.295 1.394,-3.485 1.394,-6.572 0,-2.851 -0.484,-4.944 -1.453,-6.282 -0.97,-1.336 -2.151,-2.006 -3.544,-2.006 -1.514,0 -2.771,0.673 -3.779,2.021 -1.006,1.345 -1.51,3.532 -1.51,6.556 M 378.201,165 v -43.201 h 11.128 v 4.107 c 1.544,-1.719 2.959,-2.88 4.247,-3.486 1.736,-0.813 3.658,-1.219 5.765,-1.219 4.157,0 7.372,1.584 9.647,4.757 2.274,3.173 3.413,7.092 3.413,11.76 0,5.157 -1.24,9.092 -3.717,11.809 -2.479,2.716 -5.615,4.073 -9.409,4.073 -1.831,0 -3.502,-0.272 -5.016,-0.819 -1.513,-0.548 -2.865,-1.36 -4.059,-2.443 V 165 h -11.999 z"
       id="path23"
       inkscape:connector-curvature="0"
       style="fill:#ffffff" /><path
       d="m 432.802,109.799 v 12 h 6.6 v 9 h -6.6 v 11.29 c 0,1.355 0.13,2.251 0.394,2.69 0.398,0.681 1.102,1.02 2.11,1.02 0.906,0 2.17,-0.258 3.797,-0.777 L 440,152.71 c -2.987,0.592 -5.777,0.89 -8.369,0.89 -3.008,0 -5.225,-0.374 -6.648,-1.126 -1.426,-0.747 -2.479,-1.891 -3.16,-3.426 -0.683,-1.533 -1.021,-4.014 -1.021,-7.439 v -10.81 h -4.201 v -9 h 4.201 v -5.793 l 12,-6.207"
       id="path25"
       inkscape:connector-curvature="0"
       style="fill:#ffffff" /><path
       d="M 512,364.931 C 473.734,325.406 350,201 350,201 H 170 L 150,368 297,512 H 512 V 364.931"
       id="path27"
       inkscape:connector-curvature="0"
       style="opacity:0.19100001;fill:#010101" /><polyline
       points="306.814,266.761 342.354,266.937 339.389,290.891 337.761,303.772 329.794,367.988 235.777,400    149.74,367.988 154.996,325.306 190.563,325.306 188.424,342.896 240.44,362.22 297.34,342.896 302.337,302.6 192.923,302.6    157.385,302.424 160.351,278.472 161.979,265.589 169.945,201.374 263.964,169.362 350,201.374 344.745,244.057 309.175,244.057    311.315,226.463 259.3,207.14 202.398,226.463 197.401,266.761 306.814,266.761  "
       id="polyline29"
       style="fill:#ffffff" /></g></svg>