<?xml version="1.0" encoding="UTF-8" standalone="no"?>
<svg
   xmlns:dc="http://purl.org/dc/elements/1.1/"
   xmlns:cc="http://creativecommons.org/ns#"
   xmlns:rdf="http://www.w3.org/1999/02/22-rdf-syntax-ns#"
   xmlns:svg="http://www.w3.org/2000/svg"
   xmlns="http://www.w3.org/2000/svg"
   xmlns:sodipodi="http://sodipodi.sourceforge.net/DTD/sodipodi-0.dtd"
   xmlns:inkscape="http://www.inkscape.org/namespaces/inkscape"
   enable-background="new 0 0 512 512"
   height="128"
   version="1.1"
   viewBox="0 0 128 128"
   width="128"
   xml:space="preserve"
   id="svg2"
   inkscape:version="0.48.5 r10040"
   sodipodi:docname="1433191374_Terminal.svg"><metadata
     id="metadata42"><rdf:RDF><cc:Work
         rdf:about=""><dc:format>image/svg+xml</dc:format><dc:type
           rdf:resource="http://purl.org/dc/dcmitype/StillImage" /></cc:Work></rdf:RDF></metadata><defs
     id="defs40" /><sodipodi:namedview
     pagecolor="#ffffff"
     bordercolor="#666666"
     borderopacity="1"
     objecttolerance="10"
     gridtolerance="10"
     guidetolerance="10"
     inkscape:pageopacity="0"
     inkscape:pageshadow="2"
     inkscape:window-width="1269"
     inkscape:window-height="994"
     id="namedview38"
     showgrid="false"
     inkscape:zoom="1.3037281"
     inkscape:cx="123.28813"
     inkscape:cy="-28.590447"
     inkscape:window-x="1366"
     inkscape:window-y="0"
     inkscape:window-maximized="1"
     inkscape:current-layer="svg2" /><g
     id="Layer_1"
     transform="translate(0,-384)" /><g
     id="Icon"
     transform="matrix(0.24866174,0,0,0.24866174,-0.3640587,-0.4803416)"><ellipse
       cx="258.375"
       cy="255.649"
       rx="254.776"
       ry="252.774"
       id="ellipse19"
       d="m 513.151,255.649 c 0,139.60323 -114.0671,252.774 -254.776,252.774 C 117.6661,508.423 3.598999,395.25223 3.598999,255.649 3.598999,116.04578 117.6661,2.875 258.375,2.875 c 140.7089,0 254.776,113.17078 254.776,252.774 z"
       sodipodi:cx="258.375"
       sodipodi:cy="255.649"
       sodipodi:rx="254.776"
       sodipodi:ry="252.774"
       style="fill:#fbd50a" /></g><g
     id="Layer_4"
     transform="matrix(0.30946891,0,0,0.30946891,-15.851188,-17.105635)"><path
       d="M 109,371 V 152.333 c 0,-6.627 5.373,-12 12,-12 h 274.667 c 6.627,0 12,5.373 12,12 V 371"
       id="path22"
       inkscape:connector-curvature="0"
       style="fill:#f2f2f2" /><path
       d="M 109,371 V 155.333 c 0,-6.627 5.373,-12 12,-12 h 268.667 c 6.627,0 12,5.373 12,12 V 371"
       id="path24"
       inkscape:connector-curvature="0"
       style="fill:#202c3c" /><path
       d="m 109,164 v -11.667 c 0,-6.627 5.373,-12 12,-12 h 274.667 c 6.627,0 12,5.373 12,12 V 164"
       id="path26"
       inkscape:connector-curvature="0"
       style="fill:#ffffff" /><circle
       cx="118.625"
       cy="152.125"
       r="3.5"
       id="circle28"
       d="m 122.125,152.125 c 0,1.933 -1.567,3.5 -3.5,3.5 -1.933,0 -3.5,-1.567 -3.5,-3.5 0,-1.933 1.567,-3.5 3.5,-3.5 1.933,0 3.5,1.567 3.5,3.5 z"
       sodipodi:cx="118.625"
       sodipodi:cy="152.125"
       sodipodi:rx="3.5"
       sodipodi:ry="3.5"
       style="fill:#c61934" /><circle
       cx="128.625"
       cy="152.125"
       r="3.5"
       id="circle30"
       d="m 132.125,152.125 c 0,1.933 -1.567,3.5 -3.5,3.5 -1.933,0 -3.5,-1.567 -3.5,-3.5 0,-1.933 1.567,-3.5 3.5,-3.5 1.933,0 3.5,1.567 3.5,3.5 z"
       sodipodi:cx="128.625"
       sodipodi:cy="152.125"
       sodipodi:rx="3.5"
       sodipodi:ry="3.5"
       style="fill:#fbd50a" /><circle
       cx="138.625"
       cy="152.125"
       r="3.5"
       id="circle32"
       d="m 142.125,152.125 c 0,1.933 -1.567,3.5 -3.5,3.5 -1.933,0 -3.5,-1.567 -3.5,-3.5 0,-1.933 1.567,-3.5 3.5,-3.5 1.933,0 3.5,1.567 3.5,3.5 z"
       sodipodi:cx="138.625"
       sodipodi:cy="152.125"
       sodipodi:rx="3.5"
       sodipodi:ry="3.5"
       style="fill:#39b54a" /><text
       font-size="36"
       transform="translate(118.625,199.6667)"
       id="text34"
       style="font-size:36px;fill:#39b54a;font-family:MyriadPro-Cond" />
<rect
       height="32"
       width="16.5"
       x="208.625"
       y="171.66701"
       id="rect36"
       style="fill:#39b54a" /></g></svg>