<?xml version="1.0" ?><!DOCTYPE svg  PUBLIC '-//W3C//DTD SVG 1.1//EN'  'http://www.w3.org/Graphics/SVG/1.1/DTD/svg11.dtd'><svg enable-background="new 0 0 512 512" height="512px" version="1.1" viewBox="0 0 512 512" width="512px" xml:space="preserve" xmlns="http://www.w3.org/2000/svg" xmlns:xlink="http://www.w3.org/1999/xlink"><g id="Layer_1"/><g id="Colors"><rect fill="#FFFFFF" height="267" stroke="#231F20" stroke-miterlimit="10" width="267" x="-779" y="-512"/><rect fill="#FBD50A" height="267" stroke="#231F20" stroke-miterlimit="10" width="267" x="-779" y="-244"/><rect fill="#C61934" height="267" stroke="#231F20" stroke-miterlimit="10" width="267" x="-779" y="23"/><rect fill="#96212C" height="267" stroke="#231F20" stroke-miterlimit="10" width="267" x="-779" y="290"/><rect fill="#202C3C" height="267" stroke="#231F20" stroke-miterlimit="10" width="267" x="-779" y="557"/><rect fill="#ED1C24" height="267" stroke="#231F20" stroke-miterlimit="10" width="267" x="-779" y="825"/></g><g id="Icon"><ellipse cx="258.375" cy="255.649" fill="#FBD50A" rx="254.776" ry="252.774"/></g><g id="Layer_4"><path d="M109,371V152.333c0-6.627,5.373-12,12-12h274.667c6.627,0,12,5.373,12,12V371" fill="#F2F2F2"/><path d="M109,371V152.333c0-6.627,5.373-12,12-12h28.667c6.627,0,12,5.373,12,12V371" fill="#202C3C"/><path d="M109,164v-11.667c0-6.627,5.373-12,12-12h274.667c6.627,0,12,5.373,12,12V164" fill="#FFFFFF"/><circle cx="118.625" cy="152.125" fill="#C61934" r="3.5"/><circle cx="128.625" cy="152.125" fill="#FBD50A" r="3.5"/><circle cx="138.625" cy="152.125" fill="#39B54A" r="3.5"/><line fill="none" stroke="#9EA3A6" stroke-linecap="round" stroke-miterlimit="10" stroke-width="5" x1="115.125" x2="132.125" y1="171" y2="171"/><line fill="none" stroke="#9EA3A6" stroke-linecap="round" stroke-miterlimit="10" stroke-width="5" x1="125.125" x2="148.333" y1="179" y2="179"/><line fill="none" stroke="#9EA3A6" stroke-linecap="round" stroke-miterlimit="10" stroke-width="5" x1="125.125" x2="142.125" y1="186" y2="186"/><line fill="none" stroke="#9EA3A6" stroke-linecap="round" stroke-miterlimit="10" stroke-width="5" x1="125.125" x2="156.25" y1="193" y2="193"/><rect fill="#FFFFFF" height="188.667" width="235.667" x="167" y="171"/><line fill="none" stroke="#202C3C" stroke-miterlimit="10" stroke-width="5" x1="173.125" x2="204.25" y1="179" y2="179"/><line fill="none" stroke="#BE1E2D" stroke-miterlimit="10" stroke-width="5" x1="182.625" x2="279.75" y1="189" y2="189"/><line fill="none" stroke="#FBD50A" stroke-miterlimit="10" stroke-width="5" x1="192.375" x2="237.5" y1="199" y2="199"/><line fill="none" stroke="#FBD50A" stroke-miterlimit="10" stroke-width="5" x1="192.375" x2="262.5" y1="209" y2="209"/><line fill="none" stroke="#9EA3A6" stroke-miterlimit="10" stroke-width="5" x1="192.375" x2="301.75" y1="219" y2="219"/><line fill="none" stroke="#BE1E2D" stroke-miterlimit="10" stroke-width="5" x1="212.375" x2="257.5" y1="219" y2="219"/><line fill="none" stroke="#202C3C" stroke-miterlimit="10" stroke-width="5" x1="192.375" x2="314.75" y1="229" y2="229"/><line fill="none" stroke="#9EA3A6" stroke-miterlimit="10" stroke-width="5" x1="192.375" x2="301.75" y1="239" y2="239"/><line fill="none" stroke="#FBD50A" stroke-miterlimit="10" stroke-width="5" x1="192.375" x2="237.5" y1="249" y2="249"/><line fill="none" stroke="#FBD50A" stroke-miterlimit="10" stroke-width="5" x1="192.375" x2="262.5" y1="259" y2="259"/><line fill="none" stroke="#9EA3A6" stroke-miterlimit="10" stroke-width="5" x1="192.375" x2="301.75" y1="269" y2="269"/><line fill="none" stroke="#BE1E2D" stroke-miterlimit="10" stroke-width="5" x1="192.375" x2="314.75" y1="279" y2="279"/><line fill="none" stroke="#9EA3A6" stroke-miterlimit="10" stroke-width="5" x1="192.375" x2="301.75" y1="289" y2="289"/><line fill="none" stroke="#9EA3A6" stroke-linecap="round" stroke-miterlimit="10" stroke-width="5" x1="153.625" x2="184.75" y1="152.167" y2="152.167"/></g></svg>