<?xml version="1.0" encoding="UTF-8" standalone="no"?>
<svg
   xmlns:dc="http://purl.org/dc/elements/1.1/"
   xmlns:cc="http://creativecommons.org/ns#"
   xmlns:rdf="http://www.w3.org/1999/02/22-rdf-syntax-ns#"
   xmlns:svg="http://www.w3.org/2000/svg"
   xmlns="http://www.w3.org/2000/svg"
   xmlns:sodipodi="http://sodipodi.sourceforge.net/DTD/sodipodi-0.dtd"
   xmlns:inkscape="http://www.inkscape.org/namespaces/inkscape"
   enable-background="new 0 0 24 24"
   id="Layer_1"
   version="1.0"
   viewBox="0 0 128 128"
   xml:space="preserve"
   inkscape:version="0.48.5 r10040"
   width="100%"
   height="100%"
   sodipodi:docname="1433309477_student.svg"><metadata
     id="metadata13"><rdf:RDF><cc:Work
         rdf:about=""><dc:format>image/svg+xml</dc:format><dc:type
           rdf:resource="http://purl.org/dc/dcmitype/StillImage" /></cc:Work></rdf:RDF></metadata><defs
     id="defs11" /><sodipodi:namedview
     pagecolor="#ffffff"
     bordercolor="#666666"
     borderopacity="1"
     objecttolerance="10"
     gridtolerance="10"
     guidetolerance="10"
     inkscape:pageopacity="0"
     inkscape:pageshadow="2"
     inkscape:window-width="1355"
     inkscape:window-height="711"
     id="namedview9"
     showgrid="false"
     inkscape:zoom="2.4583333"
     inkscape:cx="-8.7442728"
     inkscape:cy="31.083075"
     inkscape:window-x="0"
     inkscape:window-y="27"
     inkscape:window-maximized="1"
     inkscape:current-layer="Layer_1" /><path
     sodipodi:type="arc"
     style="fill:#ff7f2a;fill-opacity:1"
     id="path2994"
     sodipodi:cx="-65.898308"
     sodipodi:cy="64.94915"
     sodipodi:rx="48.81356"
     sodipodi:ry="48.81356"
     d="m -17.084747,64.94915 a 48.81356,48.81356 0 1 1 -97.627123,0 48.81356,48.81356 0 1 1 97.627123,0 z"
     transform="matrix(1.3,0,0,1.3,149.93899,-20.298303)" /><polygon
     points="12,15 23,9 12,3 1,9 "
     id="polygon3"
     transform="matrix(4.5439137,0,0,4.5439137,9.8798233,6.7981508)" /><polygon
     points="19,12.8 12,17 5,12.8 5,17.2 12,21 19,17.2 "
     id="polygon5"
     transform="matrix(4.5439137,0,0,4.5439137,9.8798233,6.7981508)" /><rect
     height="36.351311"
     width="9.0878277"
     x="105.30199"
     y="47.693378"
     id="rect7" /></svg>