<?xml version="1.0" encoding="UTF-8" standalone="no"?>
<svg
   xmlns:dc="http://purl.org/dc/elements/1.1/"
   xmlns:cc="http://creativecommons.org/ns#"
   xmlns:rdf="http://www.w3.org/1999/02/22-rdf-syntax-ns#"
   xmlns:svg="http://www.w3.org/2000/svg"
   xmlns="http://www.w3.org/2000/svg"
   xmlns:sodipodi="http://sodipodi.sourceforge.net/DTD/sodipodi-0.dtd"
   xmlns:inkscape="http://www.inkscape.org/namespaces/inkscape"
   height="128"
   version="1.0"
   viewBox="0 0 128 128"
   width="128"
   xml:space="preserve"
   id="svg2"
   inkscape:version="0.48.5 r10040"
   sodipodi:docname="1433567714_Images.svg"><metadata
     id="metadata38"><rdf:RDF><cc:Work
         rdf:about=""><dc:format>image/svg+xml</dc:format><dc:type
           rdf:resource="http://purl.org/dc/dcmitype/StillImage" /></cc:Work></rdf:RDF></metadata><defs
     id="defs36" /><sodipodi:namedview
     pagecolor="#ffffff"
     bordercolor="#666666"
     borderopacity="1"
     objecttolerance="10"
     gridtolerance="10"
     guidetolerance="10"
     inkscape:pageopacity="0"
     inkscape:pageshadow="2"
     inkscape:window-width="1269"
     inkscape:window-height="994"
     id="namedview34"
     showgrid="false"
     inkscape:zoom="2.1454545"
     inkscape:cx="55.932203"
     inkscape:cy="55"
     inkscape:window-x="1366"
     inkscape:window-y="0"
     inkscape:window-maximized="1"
     inkscape:current-layer="svg2" /><g
     id="Artboard"
     transform="translate(0,18)" /><g
     id="Multicolor"
     transform="matrix(1.1610169,0,0,1.1610169,0,0.28813559)"><circle
       cx="55"
       cy="55"
       r="55"
       style="fill:#e04f5f"
       id="circle6"
       sodipodi:cx="55"
       sodipodi:cy="55"
       sodipodi:rx="55"
       sodipodi:ry="55"
       d="M 110,55 C 110,85.375661 85.375661,110 55,110 24.624339,110 0,85.375661 0,55 0,24.624339 24.624339,0 55,0 c 30.375661,0 55,24.624339 55,55 z" /><g
       id="g8"><path
         d="m 87,85 c 0,1.105 -0.895,2 -2,2 H 41 c -1.105,0 -2,-0.895 -2,-2 V 41 c 0,-1.105 0.895,-2 2,-2 h 44 c 1.105,0 2,0.895 2,2 v 44 z"
         style="fill:#f0f1f1"
         id="path10"
         inkscape:connector-curvature="0" /><rect
         height="32"
         style="fill:#40c9e7"
         width="40"
         x="43"
         y="43"
         id="rect12" /><path
         d="m 71,69 c 0,1.105 -0.895,2 -2,2 H 25 c -1.105,0 -2,-0.895 -2,-2 V 25 c 0,-1.105 0.895,-2 2,-2 h 44 c 1.105,0 2,0.895 2,2 v 44 z"
         style="fill:#ffffff"
         id="path14"
         inkscape:connector-curvature="0" /><rect
         height="32"
         style="fill:#40c9e7"
         width="40"
         x="27"
         y="27"
         id="rect16" /><g
         id="g18"><polygon
           points="35.626,43.003 35.623,43 38.957,39 38.959,39.003 38.962,39 43.979,45.021 62,27 26.962,27 26.962,53.4 "
           style="fill:#6fdaf1"
           id="polygon20" /></g><polygon
         points="38,59 67,59 67,42.2 59,31 "
         style="fill:#84462d"
         id="polygon22" /><polygon
         points="61.907,43.077 64.833,39.174 58.98,30.979 53.126,38.784 56.053,43.077 58.98,38.979 "
         style="fill:#f0f1f1"
         id="polygon24" /><polygon
         points="27,53.4 27,59 55.667,59 39,39 "
         style="fill:#d4a263"
         id="polygon26" /><path
         d="m 49.005,33.037 c 0,1.105 -0.896,2.001 -2.001,2.001 H 34.996 c -1.105,0 -2.001,-0.896 -2.001,-2.001 0,-1.241 1.166,-2.543 3.336,-1.769 1.1,-1.36 2.79,-2.23 4.67,-2.23 1.88,0 3.57,0.87 4.67,2.23 2.179,-0.778 3.334,0.539 3.334,1.769 z"
         style="fill:#ffffff"
         id="path28"
         inkscape:connector-curvature="0" /><polygon
         points="42.328,43 44.017,45.021 30.038,59 27,59 27,53.4 35.664,43.003 38.995,47 "
         style="fill:#edbc7c"
         id="polygon30" /><polygon
         points="42.328,43.038 38.995,39.038 35.661,43.038 38.995,47.038 "
         style="fill:#ffffff"
         id="polygon32" /></g></g></svg>