<?xml version="1.0" encoding="UTF-8" standalone="no"?>
<svg
   xmlns:dc="http://purl.org/dc/elements/1.1/"
   xmlns:cc="http://creativecommons.org/ns#"
   xmlns:rdf="http://www.w3.org/1999/02/22-rdf-syntax-ns#"
   xmlns:svg="http://www.w3.org/2000/svg"
   xmlns="http://www.w3.org/2000/svg"
   xmlns:sodipodi="http://sodipodi.sourceforge.net/DTD/sodipodi-0.dtd"
   xmlns:inkscape="http://www.inkscape.org/namespaces/inkscape"
   height="128"
   viewBox="0 0 128 128"
   width="128"
   id="svg2"
   version="1.1"
   inkscape:version="0.48.5 r10040"
   sodipodi:docname="1433567689_wrench.svg">
  <metadata
     id="metadata24">
    <rdf:RDF>
      <cc:Work
         rdf:about="">
        <dc:format>image/svg+xml</dc:format>
        <dc:type
           rdf:resource="http://purl.org/dc/dcmitype/StillImage" />
      </cc:Work>
    </rdf:RDF>
  </metadata>
  <defs
     id="defs22" />
  <sodipodi:namedview
     pagecolor="#ffffff"
     bordercolor="#666666"
     borderopacity="1"
     objecttolerance="10"
     gridtolerance="10"
     guidetolerance="10"
     inkscape:pageopacity="0"
     inkscape:pageshadow="2"
     inkscape:window-width="1355"
     inkscape:window-height="711"
     id="namedview20"
     showgrid="false"
     inkscape:zoom="2.36"
     inkscape:cx="50"
     inkscape:cy="50"
     inkscape:window-x="0"
     inkscape:window-y="27"
     inkscape:window-maximized="1"
     inkscape:current-layer="svg2" />
  <path
     d="m 64.194915,-0.38983051 c 35.453568,0 64.194915,28.74134751 64.194915,64.19491551 C 128.38983,99.258653 99.648483,128 64.194915,128 28.741347,128 0,99.258653 0,63.805085 0,28.351517 28.741347,-0.38983051 64.194915,-0.38983051 z"
     id="path4"
     inkscape:connector-curvature="0"
     style="fill:#e2574c" />
  <path
     d="m 94.981513,48.769352 c -0.775475,-0.15792 -1.583047,0.08217 -2.146678,0.644517 L 74.573949,68.03553 c -1.84111,1.843678 -8.030784,0.496868 -12.197034,-1.128547 -1.627983,-4.16625 -2.973508,-10.357208 -1.137534,-12.197034 L 79.952199,36.537653 c 0.562348,-0.561064 0.806288,-1.366068 0.644517,-2.141543 -0.160487,-0.778042 -0.706144,-1.421275 -1.43925,-1.714004 -11.657797,-4.636157 -24.924318,-1.902737 -33.792203,6.961297 -7.829212,7.829211 -10.730822,18.807826 -8.432644,29.013533 -0.295297,5.05856 -4.894221,10.986318 -7.272,13.403899 L 11.388178,100.29347 c 4.681093,6.76358 10.625542,12.58092 17.495682,17.11565 l 17.405809,-17.37371 c 2.440691,-2.404741 9.032225,-6.938185 14.053551,-7.458164 0.7575,0.04879 2.32514,0.152784 2.673077,0.229818 l -0.0026,-0.02953 c 9.791008,1.422559 19.680877,-1.774348 26.715356,-8.799839 8.867885,-8.853763 11.606445,-22.115148 6.969,-33.765242 -0.292729,-0.739525 -0.937246,-1.28133 -1.716572,-1.443101 z"
     id="path6"
     inkscape:connector-curvature="0"
     style="fill:#cd4f45" />
  <path
     d="m 94.981513,47.485453 c -0.775475,-0.157919 -1.583047,0.08217 -2.146678,0.644517 L 74.573949,66.751631 C 72.732839,68.595309 66.543165,67.2485 62.376915,65.623085 60.748932,61.456835 59.403407,55.265877 61.239381,53.426051 L 79.952199,35.253754 c 0.562348,-0.561063 0.806288,-1.366068 0.644517,-2.141542 -0.160487,-0.778043 -0.706144,-1.421276 -1.43925,-1.714004 -11.657797,-4.636157 -24.924318,-1.902738 -33.792203,6.961296 -7.829212,7.829212 -10.730822,18.807827 -8.432644,29.013534 -0.295297,5.058559 -4.894221,10.986318 -7.272,13.403898 L 10.859212,99.535975 c 4.586085,6.831625 10.449648,12.732415 17.249174,17.362155 l 18.18,-18.147901 c 2.44069,-2.404742 9.032224,-6.938187 14.05355,-7.458165 0.7575,0.04879 2.32514,0.152783 2.673077,0.229817 l -0.0026,-0.02953 c 9.791008,1.422559 19.680877,-1.774348 26.715356,-8.799839 8.867885,-8.853763 11.606439,-22.115149 6.969,-33.765242 -0.291445,-0.738241 -0.935962,-1.280046 -1.715288,-1.441818 z"
     id="path8"
     inkscape:connector-curvature="0"
     style="fill:#ededed" />
  <g
     id="g10"
     style="fill:#e1e1e1"
     transform="matrix(1.2838983,0,0,1.2838983,0,-0.38983051)">
    <path
       d="m 76.862,44.556 c 0.127,1.086 0.187,2.175 0.17,3.26 -0.073,-2.83 -0.63,-5.673 -1.717,-8.403 -0.228,-0.575 -0.729,-0.998 -1.337,-1.123 -0.604,-0.123 -1.233,0.064 -1.672,0.502 L 58.084,53.295 c -1.434,1.436 -6.255,0.387 -9.5,-0.879 -0.111,-0.284 -0.22,-0.581 -0.327,-0.887 L 14.541,85.246 c 2.247,2.261 4.709,4.307 7.353,6.107 l 14.16,-14.135 c 1.901,-1.873 7.035,-5.404 10.946,-5.809 0.59,0.038 1.811,0.119 2.082,0.179 L 49.08,71.565 c 7.626,1.108 15.329,-1.382 20.808,-6.854 5.382,-5.374 7.849,-12.831 6.974,-20.155 z m -0.868,-4.181 -0.146,-0.465 0.146,0.465 z m 0.813,3.729 c -0.039,-0.29 -0.083,-0.578 -0.134,-0.866 0.05,0.288 0.095,0.577 0.134,0.866 z m -0.321,-1.814 -0.174,-0.754 0.174,0.754 z"
       id="path12"
       inkscape:connector-curvature="0" />
  </g>
  <path
     d="m 45.365263,39.643403 c 8.867885,-8.864034 22.134406,-11.597454 33.792203,-6.961297 0.685602,0.27347 1.195309,0.860212 1.390462,1.571491 0.109131,-0.365911 0.129674,-0.756216 0.04879,-1.141385 -0.160487,-0.778043 -0.706144,-1.421276 -1.43925,-1.714004 C 67.499669,26.762051 54.233148,29.49547 45.365263,38.359504 39.188428,44.536339 36.091665,52.67497 36.184106,60.846983 36.413924,53.110212 39.51197,45.496695 45.365263,39.643403 z M 29.660619,80.776936 10.859212,99.535975 11.386894,100.29347 29.659335,82.060835 c 2.376496,-2.418865 6.975419,-8.345339 7.272,-13.403899 l -0.08859,-0.463487 c -0.698441,4.863407 -4.932738,10.294297 -7.182127,12.583487 z"
     id="path14"
     inkscape:connector-curvature="0"
     style="fill:#f4f4f4" />
  <path
     d="M 36.862004,86.551911 16.568708,106.84392 c 1.437966,1.58947 2.95425,3.10961 4.543716,4.54886 L 41.408288,91.096911 c 1.255653,-1.256936 1.255653,-3.290631 0,-4.546284 -1.255652,-1.255652 -3.290631,-1.254369 -4.546284,0.0013 z"
     id="path16"
     inkscape:connector-curvature="0"
     style="fill:#ccd0d2" />
  <path
     d="m 36.862004,86.551911 -20.293296,20.292009 0.621406,0.66378 19.67189,-19.671891 c 1.256937,-1.255652 3.290632,-1.255652 4.546284,0 0.463487,0.463488 0.752365,1.033538 0.874335,1.631835 0.207991,-1.021983 -0.08217,-2.122284 -0.874335,-2.915733 -1.255652,-1.255653 -3.290631,-1.255653 -4.546284,0 z"
     id="path18"
     inkscape:connector-curvature="0"
     style="fill:#b8bcbe" />
</svg>
