<?xml version="1.0" encoding="UTF-8" standalone="no"?>
<svg
   xmlns:dc="http://purl.org/dc/elements/1.1/"
   xmlns:cc="http://creativecommons.org/ns#"
   xmlns:rdf="http://www.w3.org/1999/02/22-rdf-syntax-ns#"
   xmlns:svg="http://www.w3.org/2000/svg"
   xmlns="http://www.w3.org/2000/svg"
   xmlns:sodipodi="http://sodipodi.sourceforge.net/DTD/sodipodi-0.dtd"
   xmlns:inkscape="http://www.inkscape.org/namespaces/inkscape"
   version="1.1"
   viewBox="0 0 128 128"
   xml:space="preserve"
   id="svg2"
   inkscape:version="0.48.5 r10040"
   width="100%"
   height="100%"
   sodipodi:docname="1433567657_monitor-graphs.svg"><metadata
     id="metadata30"><rdf:RDF><cc:Work
         rdf:about=""><dc:format>image/svg+xml</dc:format><dc:type
           rdf:resource="http://purl.org/dc/dcmitype/StillImage" /></cc:Work></rdf:RDF></metadata><defs
     id="defs28" /><sodipodi:namedview
     pagecolor="#ffffff"
     bordercolor="#666666"
     borderopacity="1"
     objecttolerance="10"
     gridtolerance="10"
     guidetolerance="10"
     inkscape:pageopacity="0"
     inkscape:pageshadow="2"
     inkscape:window-width="1269"
     inkscape:window-height="994"
     id="namedview26"
     showgrid="false"
     inkscape:zoom="3.7759698"
     inkscape:cx="104.76188"
     inkscape:cy="27.61113"
     inkscape:window-x="1366"
     inkscape:window-y="0"
     inkscape:window-maximized="1"
     inkscape:current-layer="svg2" /><g
     id="monitor-graphs"
     transform="matrix(0.25528475,0,0,0.25528475,0,0.35734757)"><g
       id="g5"><path
         d="m 249.998,0 c 138.067,0 249.998,111.931 249.998,250.007 0,138.067 -111.931,249.998 -249.998,249.998 C 111.926,500.004 0,388.074 0,250.007 0,111.931 111.926,0 249.998,0 z"
         style="fill:#5fd4af"
         id="path7"
         inkscape:connector-curvature="0" /><g
         id="_x31_6"><path
           d="M 361.886,139.392 H 138.101 c -10.696,0.034 -19.359,8.675 -19.384,19.385 v 157.212 c 0.026,10.709 8.688,19.367 19.384,19.393 h 88.914 v 3.231 c 0,1.701 -0.663,4.359 -1.47,5.94 l -22.102,8.128 c -1.974,0.915 -5.534,1.658 -7.906,1.658 h -4.419 c -2.363,0 -4.303,1.385 -4.303,3.068 v 0.137 c 0,1.675 1.94,3.06 4.303,3.06 h 117.751 c 2.372,0 4.308,-1.385 4.308,-3.06 v -0.137 c 0,-1.683 -0.91,-3.068 -2,-3.068 -1.115,0 -3.936,-0.196 -6.282,-0.445 l -28.478,-10.581 c -2.004,-0.906 -3.645,-3 -3.645,-4.701 v -3.231 h 89.115 c 10.701,-0.025 19.363,-8.683 19.393,-19.393 V 158.776 c -0.031,-10.709 -8.693,-19.35 -19.394,-19.384 z"
           style="fill:#59616a"
           id="path10"
           inkscape:connector-curvature="0" /><path
           d="m 334.459,322.143 c -1.273,0 -2.316,-1.556 -2.316,-3.479 0,-1.915 1.043,-3.479 2.316,-3.479 1.273,0 2.316,1.564 2.316,3.479 0,1.923 -1.043,3.479 -2.316,3.479 z"
           style="fill:#5fd4af"
           id="path12"
           inkscape:connector-curvature="0" /><path
           d="m 356.266,322.143 h -9.192 c -2.367,0 -4.303,-1.556 -4.303,-3.479 0,-1.915 1.936,-3.479 4.303,-3.479 h 9.192 c 2.389,0 4.312,1.564 4.312,3.479 0,1.923 -1.923,3.479 -4.312,3.479 z"
           style="fill:#ff9554"
           id="path14"
           inkscape:connector-curvature="0" /><linearGradient
           gradientUnits="userSpaceOnUse"
           id="SVGID_1_"
           x1="179.5775"
           x2="320.4061"
           y1="129.74001"
           y2="330.86411"
           gradientTransform="matrix(3.9171944,0,0,3.9171944,0,-1.3997999)"><stop
             offset="0.5"
             style="stop-color:#FFFFFF"
             id="stop17" /><stop
             offset="0.5"
             style="stop-color:#EBEBEB"
             id="stop19" /></linearGradient><path
           d="m 363.3,297.587 c -0.026,3.436 -2.923,6.325 -6.363,6.342 H 143.059 c -3.457,-0.017 -6.354,-2.906 -6.354,-6.342 V 163.033 c 0,-3.453 2.897,-6.342 6.354,-6.359 h 213.878 c 3.44,0.017 6.337,2.906 6.363,6.359 v 134.554 z"
           style="fill:url(#SVGID_1_)"
           id="path21"
           inkscape:connector-curvature="0" /><path
           d="m 307.544,280.98 c 0,1.615 -1.299,2.923 -2.906,2.923 H 195.366 c -0.769,0 -1.513,-0.316 -2.064,-0.855 -0.543,-0.547 -0.846,-1.308 -0.846,-2.069 v -99.255 c 0,-1.616 1.295,-2.923 2.91,-2.923 1.611,0 2.914,1.308 2.914,2.923 v 42.179 h 3.458 c 0.594,0 1.064,1.103 1.064,2.436 0,1.325 -0.47,2.427 -1.064,2.427 h -3.458 v 49.307 h 17.227 c -0.295,-0.658 -0.474,-1.35 -0.474,-2.085 v -38.273 c 0,-2.752 2.256,-4.991 5.004,-4.991 h 7.483 c 2.743,0 5.004,2.239 5.004,4.991 v 38.273 c 0,0.735 -0.179,1.427 -0.483,2.085 h 15.154 c -0.295,-0.658 -0.466,-1.35 -0.466,-2.085 v -82.7 c 0,-2.752 2.252,-5.008 5.004,-5.008 h 7.466 c 2.748,0 5.013,2.256 5.013,5.008 v 82.7 c 0,0.735 -0.171,1.427 -0.474,2.085 h 15.141 c -0.295,-0.658 -0.474,-1.35 -0.474,-2.085 v -60.854 c 0,-2.752 2.261,-5 5.013,-5 h 7.474 c 2.744,0 5.004,2.248 5.004,5 v 60.854 c 0,0.735 -0.171,1.427 -0.474,2.085 h 9.218 c 1.605,0.001 2.904,1.309 2.904,2.907 z"
           style="fill:#59616a"
           id="path23"
           inkscape:connector-curvature="0" /></g></g></g><g
     id="Layer_1"
     transform="translate(0,-372.004)" /></svg>