<?xml version="1.0" encoding="UTF-8" standalone="no"?>
<svg
   xmlns:dc="http://purl.org/dc/elements/1.1/"
   xmlns:cc="http://creativecommons.org/ns#"
   xmlns:rdf="http://www.w3.org/1999/02/22-rdf-syntax-ns#"
   xmlns:svg="http://www.w3.org/2000/svg"
   xmlns="http://www.w3.org/2000/svg"
   xmlns:sodipodi="http://sodipodi.sourceforge.net/DTD/sodipodi-0.dtd"
   xmlns:inkscape="http://www.inkscape.org/namespaces/inkscape"
   enable-background="new 0 0 32 32"
   height="32px"
   id="Layer_1"
   version="1.1"
   viewBox="0 0 32 32"
   width="32px"
   xml:space="preserve"
   inkscape:version="0.48.5 r10040"
   sodipodi:docname="home.svg"><metadata
     id="metadata19"><rdf:RDF><cc:Work
         rdf:about=""><dc:format>image/svg+xml</dc:format><dc:type
           rdf:resource="http://purl.org/dc/dcmitype/StillImage" /></cc:Work></rdf:RDF></metadata><defs
     id="defs17" /><sodipodi:namedview
     pagecolor="#ffffff"
     bordercolor="#666666"
     borderopacity="1"
     objecttolerance="10"
     gridtolerance="10"
     guidetolerance="10"
     inkscape:pageopacity="0"
     inkscape:pageshadow="2"
     inkscape:window-width="1269"
     inkscape:window-height="994"
     id="namedview15"
     showgrid="false"
     inkscape:zoom="7.375"
     inkscape:cx="-9.8305085"
     inkscape:cy="16"
     inkscape:window-x="1366"
     inkscape:window-y="0"
     inkscape:window-maximized="1"
     inkscape:current-layer="Layer_1" /><path
     sodipodi:type="arc"
     style="fill:#1867c3;fill-opacity:0.88617885"
     id="path2996"
     sodipodi:cx="18.440678"
     sodipodi:cy="21.152542"
     sodipodi:rx="17.898306"
     sodipodi:ry="17.898306"
     d="m 36.338984,21.152542 a 17.898306,17.898306 0 1 1 -35.79661225,0 17.898306,17.898306 0 1 1 35.79661225,0 z"
     transform="matrix(0.8939394,0,0,0.8939394,-0.48484869,-2.9090909)" /><g
     id="g3"
     transform="matrix(0.89491525,0,0,0.89491525,1.4915253,-0.58135601)"><polygon
       points="16,31 28,31 28,15 16,5.7 "
       id="polygon5"
       style="fill:#d0d3d6" /><polygon
       points="16,31 4,31 4,15 16,5.7 "
       id="polygon7"
       style="fill:#eeeded" /><rect
       height="8"
       width="8"
       x="12"
       y="20"
       id="rect9"
       style="fill:#b6312e" /><path
       d="M 16,6.4 29.5,16.3 32,13 16,1"
       id="path11"
       inkscape:connector-curvature="0"
       style="fill:#b6312e" /><path
       d="M 16,1 0,13.1 2.5,16.4 16,6.4"
       id="path13"
       inkscape:connector-curvature="0"
       style="fill:#df4937" /></g></svg>