<?xml version="1.0" ?><!DOCTYPE svg  PUBLIC '-//W3C//DTD SVG 1.1//EN'  'http://www.w3.org/Graphics/SVG/1.1/DTD/svg11.dtd'><svg enable-background="new 0 0 512 512" height="512px" id="Layer_1" version="1.1" viewBox="0 0 512 512" width="512px" xml:space="preserve" xmlns="http://www.w3.org/2000/svg" xmlns:xlink="http://www.w3.org/1999/xlink"><g><path d="M512.36,256.18c0,141.484-114.697,256.18-256.177,256.18C114.696,512.36,0,397.664,0,256.18   C0,114.697,114.696,0,256.184,0C397.663,0,512.36,114.697,512.36,256.18z" fill="#0077B5"/><path d="M113.595,206.776h61.169V403.28h-61.169V206.776z M144.202,109.09c19.554,0,35.408,15.878,35.408,35.405   c0,19.54-15.854,35.421-35.408,35.421c-19.626,0-35.455-15.881-35.455-35.421C108.747,124.968,124.576,109.09,144.202,109.09" fill="#FFFFFF"/><path d="M213.106,206.776h58.58v26.854h0.83c8.146-15.46,28.098-31.737,57.829-31.737   c61.827,0,73.267,40.68,73.267,93.604V403.28h-61.057v-95.541c0-22.807-0.444-52.127-31.763-52.127   c-31.803,0-36.65,24.822-36.65,50.443v97.225h-61.036V206.776z" fill="#FFFFFF"/></g></svg>