<?xml version="1.0" encoding="UTF-8" standalone="no"?>
<!-- Generator: Adobe Illustrator 18.0.0, SVG Export Plug-In . SVG Version: 6.00 Build 0)  -->

<svg
   xmlns:dc="http://purl.org/dc/elements/1.1/"
   xmlns:cc="http://creativecommons.org/ns#"
   xmlns:rdf="http://www.w3.org/1999/02/22-rdf-syntax-ns#"
   xmlns:svg="http://www.w3.org/2000/svg"
   xmlns="http://www.w3.org/2000/svg"
   xmlns:sodipodi="http://sodipodi.sourceforge.net/DTD/sodipodi-0.dtd"
   xmlns:inkscape="http://www.inkscape.org/namespaces/inkscape"
   version="1.1"
   id="Capa_1"
   x="0px"
   y="0px"
   viewBox="0 0 128 128"
   xml:space="preserve"
   inkscape:version="0.48.5 r10040"
   width="100%"
   height="100%"
   sodipodi:docname="logotype131.svg"><metadata
     id="metadata43"><rdf:RDF><cc:Work
         rdf:about=""><dc:format>image/svg+xml</dc:format><dc:type
           rdf:resource="http://purl.org/dc/dcmitype/StillImage" /></cc:Work></rdf:RDF></metadata><defs
     id="defs41" /><sodipodi:namedview
     pagecolor="#ffffff"
     bordercolor="#666666"
     borderopacity="1"
     objecttolerance="10"
     gridtolerance="10"
     guidetolerance="10"
     inkscape:pageopacity="0"
     inkscape:pageshadow="2"
     inkscape:window-width="1269"
     inkscape:window-height="994"
     id="namedview39"
     showgrid="false"
     inkscape:zoom="3.0202878"
     inkscape:cx="15.551256"
     inkscape:cy="45.566358"
     inkscape:window-x="1366"
     inkscape:window-y="0"
     inkscape:window-maximized="1"
     inkscape:current-layer="Capa_1" /><g
     id="g3"
     transform="matrix(0.40413138,0,0,0.40413138,1.3243771,1.3564385)"><path
       d="M 302.553,0 H 10 C 4.477,0 0,4.478 0,10 v 292.553 c 0,5.522 4.477,10 10,10 h 292.553 c 5.523,0 10,-4.478 10,-10 V 10 c 0,-5.522 -4.477,-10 -10,-10 z M 148.087,193.287 c -9.481,8.296 -21.592,12.866 -34.102,12.866 -28.109,0 -50.977,-22.4 -50.977,-49.934 0,-27.471 22.868,-49.819 50.977,-49.819 12.527,0 24.597,4.53 33.987,12.756 3.873,3.393 4.262,9.283 0.868,13.156 -3.392,3.874 -9.283,4.265 -13.156,0.869 -5.987,-5.245 -13.694,-8.135 -21.699,-8.135 -17.827,0 -32.33,13.984 -32.33,31.173 0,17.251 14.503,31.286 32.33,31.286 7.991,0 15.741,-2.931 21.822,-8.252 3.875,-3.391 9.765,-2.998 13.157,0.877 3.391,3.876 2.998,9.766 -0.877,13.157 z m 92.133,-31.001 c 5.15,0 9.324,4.174 9.324,9.323 0,5.149 -4.174,9.323 -9.324,9.323 h -10.869 l -3.378,14.904 c -0.981,4.328 -4.826,7.265 -9.085,7.265 -0.683,0 -1.376,-0.075 -2.069,-0.232 -5.022,-1.139 -8.17,-6.132 -7.032,-11.153 l 2.444,-10.783 H 190.03 l -3.378,14.904 c -0.981,4.328 -4.826,7.265 -9.084,7.265 -0.683,0 -1.376,-0.075 -2.069,-0.232 -5.022,-1.139 -8.17,-6.132 -7.032,-11.153 l 2.448,-10.799 c -5.007,-0.162 -9.019,-4.262 -9.019,-9.308 0,-5.149 4.174,-9.323 9.324,-9.323 h 3.917 l 2.725,-12.02 h -6.642 c -5.149,0 -9.324,-4.174 -9.324,-9.322 0,-5.15 4.174,-9.324 9.324,-9.324 h 10.869 l 3.378,-14.904 c 1.138,-5.021 6.134,-8.17 11.154,-7.032 5.022,1.139 8.17,6.132 7.032,11.153 l -2.444,10.783 h 20.201 l 3.378,-14.904 c 1.138,-5.021 6.133,-8.17 11.154,-7.032 5.022,1.139 8.17,6.132 7.032,11.153 l -2.448,10.799 c 5.007,0.162 9.019,4.262 9.019,9.309 0,5.148 -4.174,9.322 -9.324,9.322 h -3.917 l -2.725,12.02 h 6.641 z"
       id="path5"
       inkscape:connector-curvature="0" /><polygon
       points="196.982,150.267 194.258,162.286 214.458,162.286 217.183,150.267 "
       id="polygon7" /></g><g
     id="g9"
     transform="translate(0,-184.553)" /><g
     id="g11"
     transform="translate(0,-184.553)" /><g
     id="g13"
     transform="translate(0,-184.553)" /><g
     id="g15"
     transform="translate(0,-184.553)" /><g
     id="g17"
     transform="translate(0,-184.553)" /><g
     id="g19"
     transform="translate(0,-184.553)" /><g
     id="g21"
     transform="translate(0,-184.553)" /><g
     id="g23"
     transform="translate(0,-184.553)" /><g
     id="g25"
     transform="translate(0,-184.553)" /><g
     id="g27"
     transform="translate(0,-184.553)" /><g
     id="g29"
     transform="translate(0,-184.553)" /><g
     id="g31"
     transform="translate(0,-184.553)" /><g
     id="g33"
     transform="translate(0,-184.553)" /><g
     id="g35"
     transform="translate(0,-184.553)" /><g
     id="g37"
     transform="translate(0,-184.553)" /></svg>