<?xml version="1.0" encoding="UTF-8" standalone="no"?>
<!-- Created with Inkscape (http://www.inkscape.org/) -->

<svg
   xmlns:dc="http://purl.org/dc/elements/1.1/"
   xmlns:cc="http://creativecommons.org/ns#"
   xmlns:rdf="http://www.w3.org/1999/02/22-rdf-syntax-ns#"
   xmlns:svg="http://www.w3.org/2000/svg"
   xmlns="http://www.w3.org/2000/svg"
   xmlns:sodipodi="http://sodipodi.sourceforge.net/DTD/sodipodi-0.dtd"
   xmlns:inkscape="http://www.inkscape.org/namespaces/inkscape"
   width="373.49768"
   height="324.39911"
   id="svg3119"
   version="1.1"
   inkscape:version="0.48.2 r9819"
   sodipodi:docname="New document 2">
  <defs
     id="defs3121">
    <clipPath
       id="clipPath7340"
       clipPathUnits="userSpaceOnUse">
      <path
         style="fill:none;stroke:#000000;stroke-width:1px;stroke-linecap:butt;stroke-linejoin:miter;stroke-opacity:1"
         d="m 412.8011,764.92634 c 0,0 -17.84806,21.18943 -22.8011,33.86441 -11.81689,30.23977 -34.18204,84.68753 -22.85714,108.57143 C 398.37,973.21932 525.25324,943.25038 590,908.79075 658.87012,872.13658 756.60926,791.9925 734.28572,724.50504 c -4.49446,-13.58744 -20.29816,-23.93419 -30.35715,-28.57143 -18.97726,-8.7486 -46.56162,-14.29775 -68.57143,-22.14286 -10.01838,-3.57092 -31.88623,-1.15874 -31.88623,-1.15874 l -4.57144,1.59357 -3.23594,1.10021 -167.98496,76.67925 z"
         id="path7342"
         inkscape:connector-curvature="0"
         sodipodi:nodetypes="cssssssccccc" />
    </clipPath>
    <clipPath
       id="clipPath7344"
       clipPathUnits="userSpaceOnUse">
      <path
         style="fill:none;stroke:#000000;stroke-width:1px;stroke-linecap:butt;stroke-linejoin:miter;stroke-opacity:1"
         d="m 412.8011,764.92634 c 0,0 -17.84806,21.18943 -22.8011,33.86441 -11.81689,30.23977 -34.18204,84.68753 -22.85714,108.57143 C 398.37,973.21932 525.25324,943.25038 590,908.79075 658.87012,872.13658 756.60926,791.9925 734.28572,724.50504 c -4.49446,-13.58744 -20.29816,-23.93419 -30.35715,-28.57143 -18.97726,-8.7486 -46.56162,-14.29775 -68.57143,-22.14286 -10.01838,-3.57092 -31.88623,-1.15874 -31.88623,-1.15874 l -4.57144,1.59357 -3.23594,1.10021 -167.98496,76.67925 z"
         id="path7346"
         inkscape:connector-curvature="0"
         sodipodi:nodetypes="cssssssccccc" />
    </clipPath>
    <clipPath
       id="clipPath7348"
       clipPathUnits="userSpaceOnUse">
      <path
         style="fill:none;stroke:#000000;stroke-width:1px;stroke-linecap:butt;stroke-linejoin:miter;stroke-opacity:1"
         d="m 412.8011,764.92634 c 0,0 -17.84806,21.18943 -22.8011,33.86441 -11.81689,30.23977 -34.18204,84.68753 -22.85714,108.57143 C 398.37,973.21932 525.25324,943.25038 590,908.79075 658.87012,872.13658 756.60926,791.9925 734.28572,724.50504 c -4.49446,-13.58744 -20.29816,-23.93419 -30.35715,-28.57143 -18.97726,-8.7486 -46.56162,-14.29775 -68.57143,-22.14286 -10.01838,-3.57092 -31.88623,-1.15874 -31.88623,-1.15874 l -4.57144,1.59357 -3.23594,1.10021 -167.98496,76.67925 z"
         id="path7350"
         inkscape:connector-curvature="0"
         sodipodi:nodetypes="cssssssccccc" />
    </clipPath>
    <clipPath
       id="clipPath7352"
       clipPathUnits="userSpaceOnUse">
      <path
         style="fill:none;stroke:#000000;stroke-width:1px;stroke-linecap:butt;stroke-linejoin:miter;stroke-opacity:1"
         d="m 412.8011,764.92634 c 0,0 -17.84806,21.18943 -22.8011,33.86441 -11.81689,30.23977 -34.18204,84.68753 -22.85714,108.57143 C 398.37,973.21932 525.25324,943.25038 590,908.79075 658.87012,872.13658 756.60926,791.9925 734.28572,724.50504 c -4.49446,-13.58744 -20.29816,-23.93419 -30.35715,-28.57143 -18.97726,-8.7486 -46.56162,-14.29775 -68.57143,-22.14286 -10.01838,-3.57092 -31.88623,-1.15874 -31.88623,-1.15874 l -4.57144,1.59357 -3.23594,1.10021 -167.98496,76.67925 z"
         id="path7354"
         inkscape:connector-curvature="0"
         sodipodi:nodetypes="cssssssccccc" />
    </clipPath>
    <clipPath
       id="clipPath7356"
       clipPathUnits="userSpaceOnUse">
      <path
         style="fill:none;stroke:#000000;stroke-width:1px;stroke-linecap:butt;stroke-linejoin:miter;stroke-opacity:1"
         d="m 412.8011,764.92634 c 0,0 -17.84806,21.18943 -22.8011,33.86441 -11.81689,30.23977 -34.18204,84.68753 -22.85714,108.57143 C 398.37,973.21932 525.25324,943.25038 590,908.79075 658.87012,872.13658 756.60926,791.9925 734.28572,724.50504 c -4.49446,-13.58744 -20.29816,-23.93419 -30.35715,-28.57143 -18.97726,-8.7486 -46.56162,-14.29775 -68.57143,-22.14286 -10.01838,-3.57092 -31.88623,-1.15874 -31.88623,-1.15874 l -4.57144,1.59357 -3.23594,1.10021 -167.98496,76.67925 z"
         id="path7358"
         inkscape:connector-curvature="0"
         sodipodi:nodetypes="cssssssccccc" />
    </clipPath>
    <clipPath
       id="clipPath7360"
       clipPathUnits="userSpaceOnUse">
      <path
         style="fill:none;stroke:#000000;stroke-width:1px;stroke-linecap:butt;stroke-linejoin:miter;stroke-opacity:1"
         d="m 412.8011,764.92634 c 0,0 -17.84806,21.18943 -22.8011,33.86441 -11.81689,30.23977 -34.18204,84.68753 -22.85714,108.57143 C 398.37,973.21932 525.25324,943.25038 590,908.79075 658.87012,872.13658 756.60926,791.9925 734.28572,724.50504 c -4.49446,-13.58744 -20.29816,-23.93419 -30.35715,-28.57143 -18.97726,-8.7486 -46.56162,-14.29775 -68.57143,-22.14286 -10.01838,-3.57092 -31.88623,-1.15874 -31.88623,-1.15874 l -4.57144,1.59357 -3.23594,1.10021 -167.98496,76.67925 z"
         id="path7362"
         inkscape:connector-curvature="0"
         sodipodi:nodetypes="cssssssccccc" />
    </clipPath>
    <clipPath
       id="clipPath7364"
       clipPathUnits="userSpaceOnUse">
      <path
         style="fill:none;stroke:#000000;stroke-width:1px;stroke-linecap:butt;stroke-linejoin:miter;stroke-opacity:1"
         d="m 412.8011,764.92634 c 0,0 -17.84806,21.18943 -22.8011,33.86441 -11.81689,30.23977 -34.18204,84.68753 -22.85714,108.57143 C 398.37,973.21932 525.25324,943.25038 590,908.79075 658.87012,872.13658 756.60926,791.9925 734.28572,724.50504 c -4.49446,-13.58744 -20.29816,-23.93419 -30.35715,-28.57143 -18.97726,-8.7486 -46.56162,-14.29775 -68.57143,-22.14286 -10.01838,-3.57092 -31.88623,-1.15874 -31.88623,-1.15874 l -4.57144,1.59357 -3.23594,1.10021 -167.98496,76.67925 z"
         id="path7366"
         inkscape:connector-curvature="0"
         sodipodi:nodetypes="cssssssccccc" />
    </clipPath>
    <clipPath
       id="clipPath7368"
       clipPathUnits="userSpaceOnUse">
      <path
         style="fill:none;stroke:#000000;stroke-width:1px;stroke-linecap:butt;stroke-linejoin:miter;stroke-opacity:1"
         d="m 412.8011,764.92634 c 0,0 -17.84806,21.18943 -22.8011,33.86441 -11.81689,30.23977 -34.18204,84.68753 -22.85714,108.57143 C 398.37,973.21932 525.25324,943.25038 590,908.79075 658.87012,872.13658 756.60926,791.9925 734.28572,724.50504 c -4.49446,-13.58744 -20.29816,-23.93419 -30.35715,-28.57143 -18.97726,-8.7486 -46.56162,-14.29775 -68.57143,-22.14286 -10.01838,-3.57092 -31.88623,-1.15874 -31.88623,-1.15874 l -4.57144,1.59357 -3.23594,1.10021 -167.98496,76.67925 z"
         id="path7370"
         inkscape:connector-curvature="0"
         sodipodi:nodetypes="cssssssccccc" />
    </clipPath>
    <clipPath
       id="clipPath7372"
       clipPathUnits="userSpaceOnUse">
      <path
         style="fill:none;stroke:#000000;stroke-width:1px;stroke-linecap:butt;stroke-linejoin:miter;stroke-opacity:1"
         d="m 412.8011,764.92634 c 0,0 -17.84806,21.18943 -22.8011,33.86441 -11.81689,30.23977 -34.18204,84.68753 -22.85714,108.57143 C 398.37,973.21932 525.25324,943.25038 590,908.79075 658.87012,872.13658 756.60926,791.9925 734.28572,724.50504 c -4.49446,-13.58744 -20.29816,-23.93419 -30.35715,-28.57143 -18.97726,-8.7486 -46.56162,-14.29775 -68.57143,-22.14286 -10.01838,-3.57092 -31.88623,-1.15874 -31.88623,-1.15874 l -4.57144,1.59357 -3.23594,1.10021 -167.98496,76.67925 z"
         id="path7374"
         inkscape:connector-curvature="0"
         sodipodi:nodetypes="cssssssccccc" />
    </clipPath>
    <clipPath
       id="clipPath7376"
       clipPathUnits="userSpaceOnUse">
      <path
         style="fill:none;stroke:#000000;stroke-width:1px;stroke-linecap:butt;stroke-linejoin:miter;stroke-opacity:1"
         d="m 412.8011,764.92634 c 0,0 -17.84806,21.18943 -22.8011,33.86441 -11.81689,30.23977 -34.18204,84.68753 -22.85714,108.57143 C 398.37,973.21932 525.25324,943.25038 590,908.79075 658.87012,872.13658 756.60926,791.9925 734.28572,724.50504 c -4.49446,-13.58744 -20.29816,-23.93419 -30.35715,-28.57143 -18.97726,-8.7486 -46.56162,-14.29775 -68.57143,-22.14286 -10.01838,-3.57092 -31.88623,-1.15874 -31.88623,-1.15874 l -4.57144,1.59357 -3.23594,1.10021 -167.98496,76.67925 z"
         id="path7378"
         inkscape:connector-curvature="0"
         sodipodi:nodetypes="cssssssccccc" />
    </clipPath>
  </defs>
  <sodipodi:namedview
     id="base"
     pagecolor="#ffffff"
     bordercolor="#666666"
     borderopacity="1.0"
     inkscape:pageopacity="0.0"
     inkscape:pageshadow="2"
     inkscape:zoom="0.35"
     inkscape:cx="144.60598"
     inkscape:cy="405.0567"
     inkscape:document-units="px"
     inkscape:current-layer="layer1"
     showgrid="false"
     fit-margin-top="0"
     fit-margin-left="0"
     fit-margin-right="0"
     fit-margin-bottom="0"
     inkscape:window-width="1600"
     inkscape:window-height="838"
     inkscape:window-x="-8"
     inkscape:window-y="-8"
     inkscape:window-maximized="1" />
  <metadata
     id="metadata3124">
    <rdf:RDF>
      <cc:Work
         rdf:about="">
        <dc:format>image/svg+xml</dc:format>
        <dc:type
           rdf:resource="http://purl.org/dc/dcmitype/StillImage" />
        <dc:title></dc:title>
      </cc:Work>
    </rdf:RDF>
  </metadata>
  <g
     inkscape:label="Layer 1"
     inkscape:groupmode="layer"
     id="layer1"
     transform="translate(-230.39402,-613.01978)">
    <path
       sodipodi:nodetypes="ccc"
       inkscape:connector-curvature="0"
       id="path7286"
       d="m 276.36963,882.9613 234.63481,54.45758 53.99897,-212.94277"
       style="fill:#990e16;fill-opacity:1;stroke:none" />
    <path
       inkscape:connector-curvature="0"
       id="path7380"
       d="M 532.0924,798.89784 511.00444,937.41888 593.80223,725.39231 z"
       style="fill:#ec1622;fill-opacity:1;stroke:none" />
    <path
       sodipodi:nodetypes="cssssssccccc"
       inkscape:connector-curvature="0"
       id="path7284"
       d="m 279.16267,706.41161 c 0,0 -17.84806,21.18943 -22.8011,33.86441 -11.81689,30.23977 -0.96775,65.40182 10.35715,89.28572 31.22714,65.85714 90.24193,-12.77014 161.78572,-28.92858 186.69877,-42.16662 159.4664,-65.36968 137.14286,-132.85714 -4.49446,-13.58744 14.70184,-25.7199 4.64285,-30.35714 -18.97726,-8.7486 -46.56162,-14.29775 -68.57143,-22.14286 -10.01838,-3.57092 -31.88623,-1.15874 -31.88623,-1.15874 l -4.57144,1.59357 -3.23594,1.10021 -167.98497,76.67925 z"
       style="fill:#fefefd;fill-opacity:1;stroke:none" />
    <path
       transform="translate(-133.63842,-58.514733)"
       clip-path="url(#clipPath7376)"
       inkscape:connector-curvature="0"
       id="path7336"
       d="m 647.5,706.6479 85.36567,-27.03201 24.74874,82.32744 -61.11423,-19.1929 z"
       style="fill:#990e16;fill-opacity:1;stroke:none" />
    <path
       transform="translate(-133.63842,-58.514733)"
       clip-path="url(#clipPath7372)"
       inkscape:connector-curvature="0"
       id="path7334"
       d="M 599.28572,778.07647 745.07141,797.29866 692.96465,922.0525 610.13214,841.2403 z"
       style="fill:#990e16;fill-opacity:1;stroke:none" />
    <path
       transform="translate(-133.63842,-58.514733)"
       clip-path="url(#clipPath7368)"
       inkscape:connector-curvature="0"
       id="path7332"
       d="m 483.92857,833.43361 -99.56553,136.09606 137.38075,19.69798 z"
       style="fill:#990e16;fill-opacity:1;stroke:none" />
    <path
       transform="translate(-133.63842,-58.514733)"
       clip-path="url(#clipPath7364)"
       inkscape:connector-curvature="0"
       id="path7330"
       d="m 410.00806,941.47603 -39.65092,23.7433 -3.21428,-57.85715 -1.80014,-31.62915 34.65728,-48.0137 22.14286,50.71428 z"
       style="fill:#990e16;fill-opacity:1;stroke:none" />
    <path
       transform="translate(-133.63842,-58.514733)"
       clip-path="url(#clipPath7360)"
       inkscape:connector-curvature="0"
       id="path7322"
       d="m 400,827.71933 -39.123,99.63647 0.25254,-73.48859 z"
       style="fill:#930f17;fill-opacity:1;stroke:none" />
    <path
       style="fill:#ec1622;fill-opacity:1;stroke:none"
       d="m 647.13081,748.69855 c 0,31.23001 -57.30909,56.54693 -128.00343,56.54693 -70.69434,0 -128.00343,-25.31692 -128.00343,-56.54693 0,-31.23001 57.30909,-56.54694 128.00343,-56.54694 70.69434,0 128.00343,25.31693 128.00343,56.54694 z"
       id="path7260"
       inkscape:connector-curvature="0"
       sodipodi:nodetypes="cccccc"
       sodipodi:cx="519.12738"
       sodipodi:cy="748.69855"
       sodipodi:rx="128.00343"
       sodipodi:ry="56.546936"
       sodipodi:type="arc"
       transform="matrix(0.88936589,-0.45719614,0.45719614,0.88936589,-418.50731,261.6599)" />
    <path
       sodipodi:nodetypes="cccc"
       inkscape:connector-curvature="0"
       id="path7382"
       d="M 511.00444,937.41888 369.59138,881.43116 c 24.92107,-21.43743 56.85469,-23.56819 86.7702,-31.25514 z"
       style="fill:#f36662;fill-opacity:1;stroke:none" />
    <path
       transform="translate(-133.63842,-58.514733)"
       clip-path="url(#clipPath7356)"
       sodipodi:nodetypes="ccccc"
       inkscape:connector-curvature="0"
       id="path7324"
       d="M 483.92857,833.43361 503.2298,940.01006 C 528.69934,938.81391 556.02375,932.67145 590,908.79075 L 534.64286,843.07647 z"
       style="fill:#930f17;fill-opacity:1;stroke:none" />
    <path
       transform="translate(-133.63842,-58.514733)"
       clip-path="url(#clipPath7352)"
       sodipodi:nodetypes="ccccc"
       inkscape:connector-curvature="0"
       id="path7326"
       d="m 599.28572,778.07647 66.4451,79.3361 C 645.69587,878.44512 628.32957,901.47916 590,908.79075 l -20.71428,-66.78571 z"
       style="fill:#930f17;fill-opacity:1;stroke:none" />
    <path
       inkscape:connector-curvature="0"
       id="path7312"
       d="m 350.29015,774.91888 106.07143,75.35714 9.28572,-130.71428 z"
       style="fill:#ec1622;fill-opacity:1;stroke:none" />
    <path
       transform="translate(-133.63842,-58.514733)"
       clip-path="url(#clipPath7348)"
       sodipodi:nodetypes="cccc"
       inkscape:connector-curvature="0"
       id="path7328"
       d="m 647.5,706.6479 c 12.05542,35.04994 33.71376,68.3539 66.71824,99.59492 11.45497,-16.52335 32.73973,-26.08392 23.20313,-57.47629 z"
       style="fill:#930f17;fill-opacity:1;stroke:none" />
    <path
       inkscape:connector-curvature="0"
       id="path7314"
       d="m 465.6473,719.56174 114.93252,28.16635 -66.71824,-99.59492 z"
       style="fill:#ec1622;fill-opacity:1;stroke:none" />
    <path
       inkscape:connector-curvature="0"
       id="path7316"
       d="M 350.29015,774.91888 276.36963,882.9613 266.36157,769.2046 z"
       style="fill:#f36662;fill-opacity:1;stroke:none" />
    <path
       transform="translate(-133.63842,-58.514733)"
       clip-path="url(#clipPath7344)"
       inkscape:connector-curvature="0"
       id="path7318"
       d="m 400,827.71933 -51.24483,50.39154 20.45559,-101.26779 28.78934,4.29314 z"
       style="fill:#f36662;fill-opacity:1;stroke:none" />
    <path
       transform="translate(-133.63842,-58.514733)"
       clip-path="url(#clipPath7340)"
       inkscape:connector-curvature="0"
       id="path7320"
       d="m 647.5,706.6479 -27.26634,-41.42668 93.94419,27.02158 z"
       style="fill:#f36662;fill-opacity:1;stroke:none" />
  </g>
</svg>
